<svg width="64" height="64" viewBox="0 0 64 64" fill="none" xmlns="http://www.w3.org/2000/svg">
<path d="M0 32C0 16.9151 0 9.37258 4.68629 4.68629C9.37258 0 16.9151 0 32 0V0C47.0849 0 54.6274 0 59.3137 4.68629C64 9.37258 64 16.9151 64 32V32C64 47.0849 64 54.6274 59.3137 59.3137C54.6274 64 47.0849 64 32 64V64C16.9151 64 9.37258 64 4.68629 59.3137C0 54.6274 0 47.0849 0 32V32Z" fill="#BCFFFF"/>
<path d="M26.7951 18C27.9095 18 28.3136 18.116 28.7211 18.3339C29.1285 18.5518 29.4482 18.8715 29.6661 19.2789C29.884 19.6863 30 20.0905 30 21.2049V42.7951C30 43.9095 29.884 44.3137 29.6661 44.7211C29.4482 45.1285 29.1285 45.4482 28.7211 45.6661C28.3136 45.884 27.9095 46 26.7951 46H21.2049C20.0905 46 19.6864 45.884 19.2789 45.6661C18.8715 45.4482 18.5518 45.1285 18.3339 44.7211C18.116 44.3137 18 43.9095 18 42.7951V21.2049C18 20.0905 18.116 19.6863 18.3339 19.2789C18.5518 18.8715 18.8715 18.5518 19.2789 18.3339C19.6864 18.116 20.0905 18 21.2049 18H26.7951ZM42.7951 34C43.9095 34 44.3137 34.116 44.7211 34.3339C45.1285 34.5518 45.4482 34.8715 45.6661 35.2789C45.884 35.6863 46 36.0905 46 37.2049V42.7951C46 43.9095 45.884 44.3137 45.6661 44.7211C45.4482 45.1285 45.1285 45.4482 44.7211 45.6661C44.3137 45.884 43.9095 46 42.7951 46H37.2049C36.0905 46 35.6863 45.884 35.2789 45.6661C34.8715 45.4482 34.5518 45.1285 34.3339 44.7211C34.116 44.3137 34 43.9095 34 42.7951V37.2049C34 36.0905 34.116 35.6863 34.3339 35.2789C34.5518 34.8715 34.8715 34.5518 35.2789 34.3339C35.6863 34.116 36.0905 34 37.2049 34H42.7951ZM42.7951 18C43.9095 18 44.3137 18.116 44.7211 18.3339C45.1285 18.5518 45.4482 18.8715 45.6661 19.2789C45.884 19.6864 46 20.0905 46 21.2049V26.7951C46 27.9095 45.884 28.3137 45.6661 28.7211C45.4482 29.1285 45.1285 29.4482 44.7211 29.6661C44.3137 29.884 43.9095 30 42.7951 30H37.2049C36.0905 30 35.6863 29.884 35.2789 29.6661C34.8715 29.4482 34.5518 29.1285 34.3339 28.7211C34.116 28.3137 34 27.9095 34 26.7951V21.2049C34 20.0905 34.116 19.6864 34.3339 19.2789C34.5518 18.8715 34.8715 18.5518 35.2789 18.3339C35.6863 18.116 36.0905 18 37.2049 18H42.7951Z" fill="#51EAFF"/>
</svg>
