<svg width="64" height="64" viewBox="0 0 64 64" fill="none" xmlns="http://www.w3.org/2000/svg">
<path d="M0 32C0 16.9151 0 9.37258 4.68629 4.68629C9.37258 0 16.9151 0 32 0V0C47.0849 0 54.6274 0 59.3137 4.68629C64 9.37258 64 16.9151 64 32V32C64 47.0849 64 54.6274 59.3137 59.3137C54.6274 64 47.0849 64 32 64V64C16.9151 64 9.37258 64 4.68629 59.3137C0 54.6274 0 47.0849 0 32V32Z" fill="#CDFFBC"/>
<path fill-rule="evenodd" clip-rule="evenodd" d="M20 14C17.2386 14 15 16.2386 15 19V35.878C15 38.6395 17.2386 40.878 20 40.878H44.2927C47.0541 40.878 49.2927 38.6395 49.2927 35.878V19C49.2927 16.2386 47.0541 14 44.2927 14H20ZM25.5609 24.1951C22.7995 24.1951 20.5609 26.4337 20.5609 29.1951V40.878H43.7317V29.1951C43.7317 26.4337 41.4931 24.1951 38.7317 24.1951H25.5609Z" fill="#89E26B"/>
<path fill-rule="evenodd" clip-rule="evenodd" d="M28.3415 26.9756C25.5801 26.9756 23.3415 29.2142 23.3415 31.9756V47C23.3415 49.7614 25.5801 52 28.3415 52H35.9512C38.7127 52 40.9512 49.7614 40.9512 47V31.9756C40.9512 29.2142 38.7127 26.9756 35.9512 26.9756H28.3415ZM28.9025 46.439C28.3906 46.439 27.9757 46.854 27.9757 47.3659C27.9757 47.8777 28.3906 48.2927 28.9025 48.2927H35.3903C35.9022 48.2927 36.3172 47.8777 36.3172 47.3659C36.3172 46.854 35.9022 46.439 35.3903 46.439H28.9025Z" fill="#89E26B"/>
</svg>
