<svg width="64" height="64" viewBox="0 0 64 64" fill="none" xmlns="http://www.w3.org/2000/svg">
<path d="M0 32C0 16.9151 0 9.37258 4.68629 4.68629C9.37258 0 16.9151 0 32 0V0C47.0849 0 54.6274 0 59.3137 4.68629C64 9.37258 64 16.9151 64 32V32C64 47.0849 64 54.6274 59.3137 59.3137C54.6274 64 47.0849 64 32 64V64C16.9151 64 9.37258 64 4.68629 59.3137C0 54.6274 0 47.0849 0 32V32Z" fill="#86DE8C"/>
<path fill-rule="evenodd" clip-rule="evenodd" d="M34.1908 16.6386C34.169 16.5646 34.1472 16.4906 34.125 16.4167C33.7 15 33.4167 15 32.7083 15L31.1621 15.0003C30.5308 15.0055 30.1406 15.0885 29.875 16.4167C29.6203 17.6902 29.2511 18.9637 27.117 20.1884C24.8866 20.7868 23.788 20.1884 22.687 19.5887C22.6192 19.5518 22.5515 19.5149 22.4835 19.4783C21.1813 18.7771 20.9809 18.9775 20.4801 19.4783L19.387 20.5719C18.9442 21.022 18.727 21.3566 19.4783 22.4835C20.1989 23.5644 20.8385 24.7263 20.1941 27.1024C19.0405 29.1012 17.8409 29.4548 16.6386 29.8092C16.5646 29.831 16.4906 29.8528 16.4167 29.875C15 30.3 15 30.5833 15 31.2917L15.0003 32.8379C15.0055 33.4692 15.0885 33.8594 16.4167 34.125C17.6902 34.3797 18.9637 34.7489 20.1884 36.883C20.7868 39.1134 20.1884 40.212 19.5887 41.313C19.5518 41.3808 19.5149 41.4485 19.4783 41.5165C18.7771 42.8187 18.9775 43.0191 19.4783 43.5199L20.5719 44.613C21.022 45.0558 21.3566 45.273 22.4835 44.5217C23.5644 43.8011 24.7263 43.1615 27.1024 43.8059C29.1012 44.9595 29.4548 46.1591 29.8092 47.3614C29.831 47.4354 29.8528 47.5094 29.875 47.5833C30.3 49 30.5833 49 31.2917 49L32.8379 48.9997C33.4692 48.9945 33.8594 48.9115 34.125 47.5833C34.3797 46.3098 34.7489 45.0363 36.883 43.8116C39.1134 43.2132 40.212 43.8116 41.313 44.4113C41.3808 44.4482 41.4485 44.4851 41.5165 44.5217C42.8187 45.2229 43.0191 45.0226 43.5199 44.5217L44.613 43.4281C45.0558 42.978 45.273 42.6434 44.5217 41.5165C43.8011 40.4356 43.1615 39.2737 43.8059 36.8976C44.9595 34.8988 46.1591 34.5452 47.3614 34.1908C47.4354 34.169 47.5094 34.1472 47.5833 34.125C49 33.7 49 33.4167 49 32.7083L48.9997 31.1621C48.9945 30.5308 48.9115 30.1406 47.5833 29.875C46.3098 29.6203 45.0363 29.2511 43.8116 27.117C43.2132 24.8866 43.8116 23.788 44.4113 22.687C44.4482 22.6192 44.4851 22.5515 44.5217 22.4835C45.2229 21.1813 45.0226 20.9809 44.5217 20.4801L43.4281 19.387C42.978 18.9442 42.6434 18.727 41.5165 19.4783C40.4356 20.1989 39.2737 20.8385 36.8976 20.1941C34.8988 19.0405 34.5452 17.8409 34.1908 16.6386ZM38 32C38 35.3137 35.3137 38 32 38C28.6863 38 26 35.3137 26 32C26 28.6863 28.6863 26 32 26C35.3137 26 38 28.6863 38 32Z" fill="#4CB654"/>
</svg>
