<svg width="64" height="64" viewBox="0 0 64 64" fill="none" xmlns="http://www.w3.org/2000/svg">
<path d="M0 32C0 16.9151 0 9.37258 4.68629 4.68629C9.37258 0 16.9151 0 32 0V0C47.0849 0 54.6274 0 59.3137 4.68629C64 9.37258 64 16.9151 64 32V32C64 47.0849 64 54.6274 59.3137 59.3137C54.6274 64 47.0849 64 32 64V64C16.9151 64 9.37258 64 4.68629 59.3137C0 54.6274 0 47.0849 0 32V32Z" fill="#F4B8FF"/>
<path d="M32.0022 46.875C29.3518 46.875 27.3049 45.5401 27.3049 43.0609H36.6996C36.6996 45.5401 34.6527 46.875 32.0022 46.875ZM41.3875 34.9897C41.3875 37.6051 44.75 38.2589 44.75 39.5666C44.75 40.8743 44.0789 41.5282 41.3947 41.5282H22.6053C19.9211 41.5282 19.25 40.8743 19.25 39.5666C19.25 38.2589 22.6053 37.6051 22.6053 34.9897V30.4128C22.6053 23.8743 25.2895 18.4327 30.6579 18.4327C30.6579 17.4519 31.3289 17.125 32 17.125C32.6711 17.125 33.3421 17.4519 33.3421 18.4327C38.7105 18.4327 41.3875 23.8743 41.3875 30.4128V34.9897Z" fill="#EA7AFF"/>
</svg>
