<svg width="64" height="64" viewBox="0 0 64 64" fill="none" xmlns="http://www.w3.org/2000/svg">
<path d="M0 32C0 16.9151 0 9.37258 4.68629 4.68629C9.37258 0 16.9151 0 32 0V0C47.0849 0 54.6274 0 59.3137 4.68629C64 9.37258 64 16.9151 64 32V32C64 47.0849 64 54.6274 59.3137 59.3137C54.6274 64 47.0849 64 32 64V64C16.9151 64 9.37258 64 4.68629 59.3137C0 54.6274 0 47.0849 0 32V32Z" fill="#FFBCBC"/>
<path fill-rule="evenodd" clip-rule="evenodd" d="M26.3453 16.25C23.1851 16.25 21.7433 16.5185 20.2787 17.3018C18.9992 17.9861 17.9861 18.9992 17.3018 20.2787C16.5185 21.7433 16.25 23.1851 16.25 26.3453V37.6547C16.25 40.8149 16.5185 42.2567 17.3018 43.7213C17.9861 45.0008 18.9992 46.0139 20.2787 46.6982C21.7433 47.4815 23.1851 47.75 26.3453 47.75H37.6547C40.8149 47.75 42.2567 47.4815 43.7213 46.6982C45.0008 46.0139 46.0139 45.0008 46.6982 43.7213C47.4815 42.2567 47.75 40.8149 47.75 37.6547V26.3453C47.75 23.1851 47.4815 21.7433 46.6982 20.2787C46.0139 18.9992 45.0008 17.9861 43.7213 17.3018C42.2567 16.5185 40.8149 16.25 37.6547 16.25H26.3453ZM25.0337 23.5192C24.1973 23.5192 23.5192 24.1973 23.5192 25.0337C23.5192 25.87 24.1973 26.5481 25.0337 26.5481H38.9663C39.8027 26.5481 40.4808 25.87 40.4808 25.0337C40.4808 24.1973 39.8027 23.5192 38.9663 23.5192H25.0337ZM23.5192 32.3029C23.5192 31.4665 24.1973 30.7885 25.0337 30.7885H38.9663C39.8027 30.7885 40.4808 31.4665 40.4808 32.3029C40.4808 33.1393 39.8027 33.8173 38.9663 33.8173H25.0337C24.1973 33.8173 23.5192 33.1393 23.5192 32.3029ZM25.0337 38.0577C24.1973 38.0577 23.5192 38.7357 23.5192 39.5721C23.5192 40.4085 24.1973 41.0865 25.0337 41.0865H34.1202C34.9566 41.0865 35.6346 40.4085 35.6346 39.5721C35.6346 38.7357 34.9566 38.0577 34.1202 38.0577H25.0337Z" fill="#FF7373"/>
</svg>
