<svg width="64" height="64" viewBox="0 0 64 64" fill="none" xmlns="http://www.w3.org/2000/svg">
<path d="M0 32C0 16.9151 0 9.37258 4.68629 4.68629C9.37258 0 16.9151 0 32 0V0C47.0849 0 54.6274 0 59.3137 4.68629C64 9.37258 64 16.9151 64 32V32C64 47.0849 64 54.6274 59.3137 59.3137C54.6274 64 47.0849 64 32 64V64C16.9151 64 9.37258 64 4.68629 59.3137C0 54.6274 0 47.0849 0 32V32Z" fill="#FFDF7E"/>
<path d="M38.9244 32.8881C43.1725 32.8881 50.9607 34.4753 50.9607 40.8241C50.9607 43.6017 50.2527 43.9985 48.8367 43.9985L40.3368 44C40.6294 43.0943 40.7761 42.0321 40.7761 40.8241C40.7761 37.6339 39.607 35.1452 37.6804 33.3026C39.1304 33.0054 37.7694 32.8881 38.9244 32.8881ZM25.0363 32.8881C29.2844 32.8881 37.0727 34.4753 37.0727 40.8241C37.0727 43.6017 36.3646 43.9985 34.9486 43.9985H15.1241C13.708 43.9985 13 43.6017 13 40.8241C13 34.4753 20.7882 32.8881 25.0363 32.8881ZM25.0363 19C28.1056 19 30.5916 21.486 30.5916 24.5552C30.5916 27.6245 28.1056 30.1105 25.0363 30.1105C21.9671 30.1105 19.4811 27.6245 19.4811 24.5552C19.4811 21.486 21.9671 19 25.0363 19ZM38.9244 19C41.9937 19 44.4796 21.486 44.4796 24.5552C44.4796 27.6245 41.9937 30.1105 38.9244 30.1105C35.8551 30.1105 33.3692 27.6245 33.3692 24.5552C33.3692 21.486 35.8551 19 38.9244 19Z" fill="#FFC106"/>
</svg>
