<svg width="1440" height="1120" viewBox="0 0 1440 1120" fill="none" xmlns="http://www.w3.org/2000/svg">
<g opacity="0.4">
<line x1="21.5106" y1="564.299" x2="21.5106" y2="850" stroke="#E0E2E8"/>
<line x1="21.574" y1="618.619" x2="-715" y2="618.619" stroke="#E0E2E8"/>
<line x1="21.574" y1="686.544" x2="-715" y2="686.544" stroke="#E0E2E8"/>
<line x1="21.574" y1="754.469" x2="-715" y2="754.469" stroke="#E0E2E8"/>
<line x1="21.574" y1="822.393" x2="-715" y2="822.393" stroke="#E0E2E8"/>
<line x1="719.986" y1="564.299" x2="719.986" y2="850" stroke="#E0E2E8"/>
<line x1="545.291" y1="564.299" x2="545.291" y2="850" stroke="#E0E2E8"/>
<line x1="370.596" y1="564.299" x2="370.596" y2="850" stroke="#E0E2E8"/>
<line x1="195.901" y1="564.299" x2="195.901" y2="850" stroke="#E0E2E8"/>
<line x1="720.049" y1="618.619" x2="21.574" y2="618.619" stroke="#E0E2E8"/>
<line x1="720.049" y1="686.544" x2="21.574" y2="686.544" stroke="#E0E2E8"/>
<line x1="720.049" y1="754.469" x2="21.574" y2="754.469" stroke="#E0E2E8"/>
<line x1="720.049" y1="822.393" x2="21.574" y2="822.393" stroke="#E0E2E8"/>
<line x1="1418.46" y1="564.299" x2="1418.46" y2="850" stroke="#E0E2E8"/>
<line x1="1243.77" y1="564.299" x2="1243.77" y2="850" stroke="#E0E2E8"/>
<line x1="1069.07" y1="564.299" x2="1069.07" y2="850" stroke="#E0E2E8"/>
<line x1="894.376" y1="564.299" x2="894.376" y2="850" stroke="#E0E2E8"/>
<line x1="1418.52" y1="618.619" x2="720.049" y2="618.619" stroke="#E0E2E8"/>
<line x1="1418.52" y1="686.544" x2="720.049" y2="686.544" stroke="#E0E2E8"/>
<line x1="1418.52" y1="754.469" x2="720.049" y2="754.469" stroke="#E0E2E8"/>
<line x1="1418.52" y1="822.393" x2="720.049" y2="822.393" stroke="#E0E2E8"/>
<line x1="2117" y1="618.619" x2="1418.52" y2="618.619" stroke="#E0E2E8"/>
<line x1="2117" y1="686.544" x2="1418.52" y2="686.544" stroke="#E0E2E8"/>
<line x1="2117" y1="754.469" x2="1418.52" y2="754.469" stroke="#E0E2E8"/>
<line x1="2117" y1="822.393" x2="1418.52" y2="822.393" stroke="#E0E2E8"/>
<line x1="21.5106" y1="834" x2="21.5106" y2="1119.7" stroke="#E0E2E8"/>
<line x1="21.574" y1="888.32" x2="-715" y2="888.32" stroke="#E0E2E8"/>
<line x1="21.574" y1="956.245" x2="-715" y2="956.245" stroke="#E0E2E8"/>
<line x1="21.574" y1="1024.17" x2="-715" y2="1024.17" stroke="#E0E2E8"/>
<line x1="21.574" y1="1092.09" x2="-715" y2="1092.09" stroke="#E0E2E8"/>
<line x1="719.986" y1="834" x2="719.986" y2="1119.7" stroke="#E0E2E8"/>
<line x1="545.291" y1="834" x2="545.291" y2="1119.7" stroke="#E0E2E8"/>
<line x1="370.596" y1="834" x2="370.596" y2="1119.7" stroke="#E0E2E8"/>
<line x1="195.901" y1="834" x2="195.901" y2="1119.7" stroke="#E0E2E8"/>
<line x1="720.049" y1="888.32" x2="21.574" y2="888.32" stroke="#E0E2E8"/>
<line x1="720.049" y1="956.245" x2="21.574" y2="956.245" stroke="#E0E2E8"/>
<line x1="720.049" y1="1024.17" x2="21.574" y2="1024.17" stroke="#E0E2E8"/>
<line x1="720.049" y1="1092.09" x2="21.574" y2="1092.09" stroke="#E0E2E8"/>
<line x1="1418.46" y1="834" x2="1418.46" y2="1119.7" stroke="#E0E2E8"/>
<line x1="1243.77" y1="834" x2="1243.77" y2="1119.7" stroke="#E0E2E8"/>
<line x1="1069.07" y1="834" x2="1069.07" y2="1119.7" stroke="#E0E2E8"/>
<line x1="894.376" y1="834" x2="894.376" y2="1119.7" stroke="#E0E2E8"/>
<line x1="1418.52" y1="888.32" x2="720.049" y2="888.32" stroke="#E0E2E8"/>
<line x1="1418.52" y1="956.245" x2="720.049" y2="956.245" stroke="#E0E2E8"/>
<line x1="1418.52" y1="1024.17" x2="720.049" y2="1024.17" stroke="#E0E2E8"/>
<line x1="1418.52" y1="1092.09" x2="720.049" y2="1092.09" stroke="#E0E2E8"/>
<line x1="2117" y1="888.32" x2="1418.52" y2="888.32" stroke="#E0E2E8"/>
<line x1="2117" y1="956.245" x2="1418.52" y2="956.245" stroke="#E0E2E8"/>
<line x1="2117" y1="1024.17" x2="1418.52" y2="1024.17" stroke="#E0E2E8"/>
<line x1="2117" y1="1092.09" x2="1418.52" y2="1092.09" stroke="#E0E2E8"/>
<line x1="21.5106" y1="278.598" x2="21.5106" y2="564.299" stroke="#E0E2E8"/>
<line x1="21.574" y1="332.918" x2="-715" y2="332.918" stroke="#E0E2E8"/>
<line x1="21.574" y1="400.843" x2="-715" y2="400.843" stroke="#E0E2E8"/>
<line x1="21.574" y1="468.767" x2="-715" y2="468.768" stroke="#E0E2E8"/>
<line x1="21.574" y1="536.692" x2="-715" y2="536.692" stroke="#E0E2E8"/>
<line x1="719.986" y1="278.598" x2="719.986" y2="564.299" stroke="#E0E2E8"/>
<line x1="545.291" y1="278.598" x2="545.291" y2="564.299" stroke="#E0E2E8"/>
<line x1="370.596" y1="278.598" x2="370.596" y2="564.299" stroke="#E0E2E8"/>
<line x1="195.901" y1="278.598" x2="195.901" y2="564.299" stroke="#E0E2E8"/>
<line x1="720.049" y1="332.918" x2="21.574" y2="332.918" stroke="#E0E2E8"/>
<line x1="720.049" y1="400.843" x2="21.574" y2="400.843" stroke="#E0E2E8"/>
<line x1="720.049" y1="468.767" x2="21.574" y2="468.768" stroke="#E0E2E8"/>
<line x1="720.049" y1="536.692" x2="21.574" y2="536.692" stroke="#E0E2E8"/>
<line x1="1418.46" y1="278.598" x2="1418.46" y2="564.299" stroke="#E0E2E8"/>
<line x1="1243.77" y1="278.598" x2="1243.77" y2="564.299" stroke="#E0E2E8"/>
<line x1="1069.07" y1="278.598" x2="1069.07" y2="564.299" stroke="#E0E2E8"/>
<line x1="894.376" y1="278.598" x2="894.376" y2="564.299" stroke="#E0E2E8"/>
<line x1="1418.52" y1="332.918" x2="720.049" y2="332.918" stroke="#E0E2E8"/>
<line x1="1418.52" y1="400.843" x2="720.049" y2="400.843" stroke="#E0E2E8"/>
<line x1="1418.52" y1="468.767" x2="720.049" y2="468.768" stroke="#E0E2E8"/>
<line x1="1418.52" y1="536.692" x2="720.049" y2="536.692" stroke="#E0E2E8"/>
<line x1="2117" y1="332.918" x2="1418.52" y2="332.918" stroke="#E0E2E8"/>
<line x1="2117" y1="400.843" x2="1418.52" y2="400.843" stroke="#E0E2E8"/>
<line x1="2117" y1="468.767" x2="1418.52" y2="468.768" stroke="#E0E2E8"/>
<line x1="2117" y1="536.692" x2="1418.52" y2="536.692" stroke="#E0E2E8"/>
<line x1="21.5106" y1="-1.3346e-08" x2="21.5106" y2="285.701" stroke="#E0E2E8"/>
<line x1="21.574" y1="54.3203" x2="-715" y2="54.3203" stroke="#E0E2E8"/>
<line x1="21.574" y1="122.245" x2="-715" y2="122.245" stroke="#E0E2E8"/>
<line x1="21.574" y1="190.17" x2="-715" y2="190.17" stroke="#E0E2E8"/>
<line x1="21.574" y1="258.094" x2="-715" y2="258.095" stroke="#E0E2E8"/>
<line x1="719.986" y1="-1.3346e-08" x2="719.986" y2="285.701" stroke="#E0E2E8"/>
<line x1="545.291" y1="-1.3346e-08" x2="545.291" y2="285.701" stroke="#E0E2E8"/>
<line x1="370.596" y1="-1.3346e-08" x2="370.596" y2="285.701" stroke="#E0E2E8"/>
<line x1="195.901" y1="-2.11861e-08" x2="195.901" y2="285.701" stroke="#E0E2E8"/>
<line x1="720.049" y1="54.3203" x2="21.574" y2="54.3203" stroke="#E0E2E8"/>
<line x1="720.049" y1="122.245" x2="21.574" y2="122.245" stroke="#E0E2E8"/>
<line x1="720.049" y1="190.17" x2="21.574" y2="190.17" stroke="#E0E2E8"/>
<line x1="720.049" y1="258.094" x2="21.574" y2="258.095" stroke="#E0E2E8"/>
<line x1="1418.46" y1="-1.3346e-08" x2="1418.46" y2="285.701" stroke="#E0E2E8"/>
<line x1="1243.77" y1="-1.3346e-08" x2="1243.77" y2="285.701" stroke="#E0E2E8"/>
<line x1="1069.07" y1="-1.3346e-08" x2="1069.07" y2="285.701" stroke="#E0E2E8"/>
<line x1="894.376" y1="-2.11861e-08" x2="894.376" y2="285.701" stroke="#E0E2E8"/>
<line x1="1418.52" y1="54.3203" x2="720.049" y2="54.3203" stroke="#E0E2E8"/>
<line x1="1418.52" y1="122.245" x2="720.049" y2="122.245" stroke="#E0E2E8"/>
<line x1="1418.52" y1="190.17" x2="720.049" y2="190.17" stroke="#E0E2E8"/>
<line x1="1418.52" y1="258.094" x2="720.049" y2="258.095" stroke="#E0E2E8"/>
<line x1="2117" y1="54.3203" x2="1418.52" y2="54.3203" stroke="#E0E2E8"/>
<line x1="2117" y1="122.245" x2="1418.52" y2="122.245" stroke="#E0E2E8"/>
<line x1="2117" y1="190.17" x2="1418.52" y2="190.17" stroke="#E0E2E8"/>
<line x1="2117" y1="258.094" x2="1418.52" y2="258.095" stroke="#E0E2E8"/>
</g>
</svg>
