<svg width="64" height="64" viewBox="0 0 64 64" fill="none" xmlns="http://www.w3.org/2000/svg">
<path d="M0 32C0 16.9151 0 9.37258 4.68629 4.68629C9.37258 0 16.9151 0 32 0V0C47.0849 0 54.6274 0 59.3137 4.68629C64 9.37258 64 16.9151 64 32V32C64 47.0849 64 54.6274 59.3137 59.3137C54.6274 64 47.0849 64 32 64V64C16.9151 64 9.37258 64 4.68629 59.3137C0 54.6274 0 47.0849 0 32V32Z" fill="#005FF9"/>
<path fill-rule="evenodd" clip-rule="evenodd" d="M45.9102 37.3925C46.2722 36.6746 45.4721 35.9733 44.715 36.2435C43.3211 36.7409 41.8196 37.0118 40.2549 37.0118C32.9279 37.0118 26.9882 31.0721 26.9882 23.7452C26.9882 22.1804 27.2591 20.6789 27.7566 19.2851C28.0268 18.5279 27.3255 17.7279 26.6076 18.0898C21.9151 20.4555 18.6966 25.3175 18.6966 30.9313C18.6966 38.8688 25.1312 45.3035 33.0688 45.3035C38.6825 45.3035 43.5446 42.085 45.9102 37.3925Z" fill="#6AA3FF"/>
</svg>
