<svg width="213" height="36" viewBox="0 0 213 36" fill="none" xmlns="http://www.w3.org/2000/svg">
<path d="M151.199 23.2732H143.702C145.045 22.0481 145.444 19.5967 145.419 16.8978L145.418 16.6076H145.419V13.3136H151.199V23.2732ZM156.749 23.2732H154.553V10.0848H142.064V16.6076H142.067C142.067 16.6098 142.067 16.6121 142.067 16.6143L142.071 17.5132C142.081 19.0196 142.068 23.2485 138.905 23.2665C138.864 23.2665 138.282 23.2732 138.282 23.2732V30.1796H141.636V26.502H153.394V30.1796H156.749V26.5042V23.2732Z" fill="#005FF9"/>
<path d="M97.6654 10.0848H85.0058V10.0916C85.0081 10.7565 84.8427 18.4121 84.7279 20.616C84.6211 22.6455 84.2183 23.3452 82.0527 23.4881C81.9863 23.4915 81.7242 23.4937 81.4924 23.4926L81.4756 26.502C81.5273 26.5121 83.9494 26.8743 85.5379 25.9282C87.5764 24.7132 87.9826 22.5363 88.0737 20.7903C88.1434 19.4561 88.2357 15.8235 88.2942 13.3136H94.3141L94.3107 26.502H97.6654V10.0848Z" fill="#005FF9"/>
<path fill-rule="evenodd" clip-rule="evenodd" d="M202.372 15.0686H206.909C209.973 15.0686 212.46 17.7067 212.46 20.7701C212.46 23.8335 209.973 26.502 206.909 26.502H202.372H199.018V15.1698V10.0848H202.372V15.0686ZM206.509 18.294H205.112C205.07 18.294 205.028 18.294 204.987 18.2962H202.343V23.2732H206.509C207.884 23.2732 208.898 22.1572 208.898 20.7836C208.898 19.4088 207.884 18.294 206.509 18.294Z" fill="#005FF9"/>
<path fill-rule="evenodd" clip-rule="evenodd" d="M116.827 23.6133C116.777 23.6718 116.721 23.7337 116.667 23.791C114.05 26.5484 111.357 26.914 109.314 26.914C104.551 26.914 100.685 23.0463 100.685 18.283C100.685 13.5209 104.551 9.6543 109.314 9.6543C112.689 9.6543 115.616 11.596 117.033 14.422C117.242 14.8529 118.082 16.8115 117.783 19.9514H104.301C104.934 22.0698 106.963 23.5987 109.314 23.5987C111.775 23.5975 113.51 22.5457 114.68 21.4398L116.827 23.6122V23.6133ZM114.419 16.7227C113.884 14.6797 111.949 13.0113 109.314 13.0113C106.68 13.0113 104.76 14.6448 104.253 16.7227H114.419Z" fill="#005FF9"/>
<path fill-rule="evenodd" clip-rule="evenodd" d="M124.214 19.6676V26.502H120.861V10.0848H124.214V16.4388H132.481V10.0848H135.835V26.502H132.481V19.6676H124.214Z" fill="#005FF9"/>
<path fill-rule="evenodd" clip-rule="evenodd" d="M45.9669 10.0848H49.3216V16.7662H53.0206L56.8828 10.0848H61.0396L56.3585 18.1612L61.7653 26.502H57.6084L53.3975 19.9938H49.3216V26.502H45.9669V10.0848Z" fill="#005FF9"/>
<path fill-rule="evenodd" clip-rule="evenodd" d="M175.179 26.4922H171.825V24.6967C170.624 26.0579 168.505 26.914 166.514 26.914C161.751 26.914 157.884 23.0463 157.884 18.2842C157.884 13.5209 161.751 9.6543 166.514 9.6543C168.505 9.6543 170.511 10.4035 171.825 11.7299V10.075H175.179V26.4922ZM166.623 13.1035C169.561 13.1035 171.871 15.2039 171.871 18.2842C171.871 21.3633 169.561 23.4828 166.623 23.4828C163.687 23.4828 161.455 21.2204 161.455 18.2842C161.455 15.3468 163.687 13.1035 166.623 13.1035Z" fill="#005FF9"/>
<path fill-rule="evenodd" clip-rule="evenodd" d="M79.3948 26.4944H76.0412V24.6967C74.8397 26.0579 72.7213 26.914 70.7301 26.914C65.9668 26.914 62.1002 23.0463 62.1002 18.2842C62.1002 13.5209 65.9668 9.6543 70.7301 9.6543C72.7213 9.6543 74.7272 10.4035 76.0412 11.7299V10.075H79.3948V26.4944ZM70.8392 13.1035C73.7766 13.1035 76.0873 15.2039 76.0873 18.2842C76.0873 21.3633 73.7766 23.4828 70.8392 23.4828C67.903 23.4828 65.671 21.2204 65.671 18.2842C65.671 15.3468 67.903 13.1035 70.8392 13.1035Z" fill="#005FF9"/>
<path fill-rule="evenodd" clip-rule="evenodd" d="M178.869 32.2792L182.224 32.2724V24.6967C183.425 26.0579 185.543 26.914 187.534 26.914C192.297 26.914 196.164 23.0463 196.164 18.2842C196.164 13.5209 192.297 9.6543 187.534 9.6543C185.543 9.6543 183.537 10.4035 182.224 11.7299V10.075H178.869V32.2792ZM187.425 13.1035C184.489 13.1035 182.178 15.2039 182.178 18.2842C182.178 21.3633 184.489 23.4828 187.425 23.4828C190.362 23.4828 192.594 21.2204 192.594 18.2842C192.594 15.3468 190.362 13.1035 187.425 13.1035Z" fill="#005FF9"/>
<path d="M23.4146 18C23.4146 20.9858 20.9858 23.4146 18 23.4146C15.0142 23.4146 12.5854 20.9858 12.5854 18C12.5854 15.0143 15.0142 12.5854 18 12.5854C20.9858 12.5854 23.4146 15.0143 23.4146 18ZM18 0C8.07525 0 0 8.07525 0 18C0 27.9248 8.07525 36 18 36C21.636 36 25.1426 34.9178 28.1396 32.8691L28.1914 32.8331L25.7659 30.0139L25.7254 30.0409C23.418 31.5248 20.7461 32.31 18 32.31C10.1093 32.31 3.69 25.8908 3.69 18C3.69 10.1093 10.1093 3.69 18 3.69C25.8908 3.69 32.31 10.1093 32.31 18C32.31 19.0226 32.1964 20.0576 31.9725 21.0758C31.5203 22.9331 30.2197 23.5024 29.2432 23.427C28.2611 23.3471 27.1125 22.6474 27.1046 20.9351V19.539V18C27.1046 12.9791 23.0209 8.89538 18 8.89538C12.9791 8.89538 8.89538 12.9791 8.89538 18C8.89538 23.0209 12.9791 27.1046 18 27.1046C20.439 27.1046 22.7261 26.1506 24.4507 24.417C25.4531 25.9774 27.0878 26.9561 28.9474 27.1046C29.1071 27.1181 29.2703 27.1249 29.4323 27.1249C30.7406 27.1249 32.0389 26.6873 33.0851 25.8919C34.164 25.0729 34.9695 23.8883 35.415 22.4651C35.4859 22.2356 35.6164 21.7091 35.6175 21.7058L35.6209 21.6866C35.883 20.5448 36 19.4063 36 18C36 8.07525 27.9247 0 18 0" fill="#FF9E00"/>
</svg>
