<svg width="175" height="30" viewBox="0 0 175 30" fill="none" xmlns="http://www.w3.org/2000/svg">
<path fill-rule="evenodd" clip-rule="evenodd" d="M15 0C6.72893 0 0 6.72896 0 14.9999C0 23.271 6.72893 30 15 30C18.0408 30 20.972 29.084 23.4491 27.3911L21.4831 25.1054C19.5609 26.3418 17.3207 27.0093 15 27.0093C8.37797 27.0093 2.99071 21.622 2.99071 14.9999C2.99071 8.3779 8.37797 2.99063 15 2.99063C21.622 2.99063 27.0093 8.3779 27.0093 14.9999C27.0093 15.872 26.9114 16.7391 26.7264 17.5825C26.3414 19.1612 25.2407 19.6495 24.395 19.5834C23.5611 19.5162 22.5704 18.9217 22.5639 17.4534V14.9999C22.5639 10.8293 19.1707 7.43601 15 7.43601C10.8294 7.43601 7.43599 10.8293 7.43599 14.9999C7.43599 19.1708 10.8294 22.564 15 22.564C17.1137 22.564 19.0265 21.6914 20.4003 20.289C21.2093 21.581 22.5489 22.4354 24.1553 22.5645C24.2893 22.5752 24.423 22.5805 24.5563 22.5805C25.6448 22.5805 26.7062 22.225 27.5819 21.5601C28.4857 20.874 29.1437 19.8987 29.5126 18.7189C29.5715 18.5305 29.6796 18.0938 29.6809 18.088C29.9268 17.0231 30 16.0405 30 14.9999C30 6.72896 23.271 0 15 0ZM10.4267 14.9999C10.4267 12.4783 12.4783 10.4267 15 10.4267C17.5217 10.4267 19.5732 12.4783 19.5732 14.9999C19.5732 17.5217 17.5217 19.5733 15 19.5733C12.4783 19.5733 10.4267 17.5217 10.4267 14.9999Z" fill="#FF9E00"/>
<path fill-rule="evenodd" clip-rule="evenodd" d="M77.3712 22.4936H74.538V21.4582C73.4434 22.4091 72.0133 22.9756 70.3309 22.9756C66.3075 22.9756 63.0411 19.736 63.0411 15.7459C63.0411 11.7557 66.3075 8.51619 70.3309 8.51619C72.0133 8.51619 73.4434 9.08261 74.538 10.0335V8.99812H77.3712V22.4936ZM41.4041 22.4936H38.571V8.99821H41.4041V9.74761C42.0333 9.16097 43.2174 8.51818 44.6865 8.51619C46.5731 8.51619 48.2626 9.36833 49.3852 10.7046C50.508 9.36833 52.1975 8.51619 54.0841 8.51619C57.4561 8.51619 60.1995 11.237 60.1995 14.5812V22.4936H57.3663V14.5812C57.3663 12.7863 55.8939 11.326 54.0841 11.326C52.2742 11.326 50.8019 12.7863 50.8019 14.5812V22.4936H47.9687V14.5812C47.9687 12.7863 46.4962 11.326 44.6865 11.326C42.8766 11.326 41.4041 12.7863 41.4041 14.5812V22.4936ZM80.7554 22.4934H83.5886V8.99805H80.7554V22.4934ZM86.9727 22.4936H89.8059V3.21442H86.9727V22.4936ZM70.3357 11.288C72.8165 11.288 74.7714 13.2855 74.7714 15.7458C74.7714 18.2061 72.8165 20.2035 70.3357 20.2035C67.855 20.2035 65.8409 18.2061 65.8409 15.7458C65.8409 13.2855 67.855 11.288 70.3357 11.288ZM82.1661 2.73218C83.2401 2.73218 84.112 3.59698 84.112 4.66206C84.112 5.72723 83.2401 6.59204 82.1661 6.59204C81.092 6.59204 80.2201 5.72723 80.2201 4.66206C80.2201 3.59698 81.092 2.73218 82.1661 2.73218Z" fill="white"/>
<path fill-rule="evenodd" clip-rule="evenodd" d="M164.852 13.2304C164.913 16.2947 166.525 18.138 169.184 18.138H169.344V16.3843C170.311 16.4833 171.037 17.2045 171.329 18.138H172.724C172.347 16.7425 171.362 15.9694 170.754 15.6771C171.362 15.3141 172.225 14.4278 172.427 13.2304H171.159C170.895 14.2063 170.103 15.0878 169.344 15.1727V13.2304H168.053V16.6294C167.265 16.4361 166.242 15.4791 166.2 13.2304H164.852ZM169.005 21.4285H168.515H168.47C165.836 21.4286 164.507 21.4286 163.687 20.6035C162.862 19.7738 162.862 18.4444 162.862 15.7855V15.2858V15.2411C162.862 12.6166 162.862 11.2882 163.687 10.4678C164.517 9.64282 165.851 9.64282 168.515 9.64282H169.005C171.668 9.64282 173.003 9.64282 173.828 10.4678C174.648 11.2975 174.648 12.627 174.648 15.2858V15.7855C174.648 18.4397 174.648 19.7738 173.828 20.6035C173.003 21.4285 171.668 21.4285 169.005 21.4285ZM120.532 11.9556V21.8984H122.103V18.0036C122.385 18.351 122.749 18.6436 123.196 18.8813C123.642 19.1098 124.152 19.2241 124.726 19.2241C125.39 19.2241 125.987 19.0687 126.515 18.7578C127.044 18.4379 127.453 17.999 127.745 17.4413C128.045 16.8744 128.196 16.2344 128.196 15.5213C128.196 14.8082 128.045 14.1728 127.745 13.6151C127.453 13.0482 127.044 12.6093 126.515 12.2985C125.987 11.9785 125.39 11.8185 124.726 11.8185C124.134 11.8185 123.61 11.9465 123.155 12.2025C122.699 12.4494 122.326 12.7511 122.034 13.1076L121.706 11.9556H120.532ZM125.942 17.1807C125.532 17.6013 124.999 17.8116 124.343 17.8116C123.678 17.8116 123.136 17.6013 122.717 17.1807C122.308 16.751 122.103 16.1979 122.103 15.5213C122.103 14.8447 122.308 14.2962 122.717 13.8756C123.136 13.4459 123.678 13.2311 124.343 13.2311C124.999 13.2311 125.532 13.4459 125.942 13.8756C126.351 14.2962 126.556 14.8447 126.556 15.5213C126.556 16.1979 126.351 16.751 125.942 17.1807ZM112.5 19.087H114.071V13.3956H117.186V19.087H118.757V11.9556H112.5V19.087ZM132.952 19.2241C132.223 19.2241 131.567 19.0687 130.984 18.7578C130.411 18.4379 129.96 17.999 129.632 17.4413C129.313 16.8744 129.154 16.2344 129.154 15.5213C129.154 14.8082 129.313 14.1728 129.632 13.6151C129.96 13.0482 130.411 12.6093 130.984 12.2985C131.567 11.9785 132.223 11.8185 132.952 11.8185C133.68 11.8185 134.332 11.9785 134.905 12.2985C135.488 12.6093 135.939 13.0482 136.258 13.6151C136.586 14.1728 136.75 14.8082 136.75 15.5213C136.75 16.2344 136.586 16.8744 136.258 17.4413C135.939 17.999 135.488 18.4379 134.905 18.7578C134.332 19.0687 133.68 19.2241 132.952 19.2241ZM132.952 17.7841C133.589 17.7841 134.108 17.5784 134.509 17.167C134.91 16.7464 135.11 16.1979 135.11 15.5213C135.11 14.8447 134.91 14.3008 134.509 13.8893C134.108 13.4688 133.589 13.2585 132.952 13.2585C132.314 13.2585 131.795 13.4688 131.394 13.8893C130.994 14.3008 130.793 14.8447 130.793 15.5213C130.793 16.1979 130.994 16.7464 131.394 17.167C131.795 17.5784 132.314 17.7841 132.952 17.7841ZM145.056 15.9465C145.074 15.7453 145.083 15.5762 145.083 15.439C145.083 14.7625 144.923 14.1499 144.605 13.6013C144.295 13.0436 143.858 12.6093 143.293 12.2985C142.738 11.9785 142.105 11.8185 141.394 11.8185C140.684 11.8185 140.046 11.9785 139.482 12.2985C138.926 12.6093 138.489 13.0482 138.17 13.6151C137.86 14.1728 137.706 14.8082 137.706 15.5213C137.706 16.2344 137.86 16.8744 138.17 17.4413C138.489 17.999 138.926 18.4379 139.482 18.7578C140.046 19.0687 140.684 19.2241 141.394 19.2241C142.159 19.2241 142.851 19.0458 143.471 18.6893C144.099 18.3327 144.541 17.8253 144.796 17.167L143.321 16.9202C143.147 17.1853 142.897 17.3956 142.569 17.551C142.25 17.7064 141.891 17.7841 141.49 17.7841C140.898 17.7841 140.411 17.6196 140.028 17.2904C139.646 16.9522 139.418 16.5042 139.345 15.9465H145.056ZM140.151 13.6013C140.506 13.3271 140.921 13.1899 141.394 13.1899C141.877 13.1899 142.291 13.3316 142.637 13.6151C142.993 13.8893 143.239 14.255 143.375 14.7122H139.441C139.568 14.2459 139.805 13.8756 140.151 13.6013ZM152.783 19.087H150.72L148.261 16.2482H147.878V19.087H146.307V11.9556H147.878V14.7259H148.261L150.638 11.9556H152.509L149.518 15.3842L152.783 19.087ZM155.448 19.087H157.019V13.3956H159.478V11.9556H152.988V13.3956H155.448V19.087Z" fill="#B8B8B8"/>
<path fill-rule="evenodd" clip-rule="evenodd" d="M100.708 21.4285L100.708 9.64282L101.78 9.64282L101.78 21.4285H100.708Z" fill="#B8B8B8"/>
</svg>
