<svg width="36" height="36" viewBox="0 0 36 36" fill="none" xmlns="http://www.w3.org/2000/svg">
<path d="M0 18C0 10.5005 0 6.7508 1.90983 4.12215C2.52663 3.2732 3.2732 2.52663 4.12215 1.90983C6.7508 0 10.5005 0 18 0C25.4995 0 29.2492 0 31.8779 1.90983C32.7268 2.52663 33.4734 3.2732 34.0902 4.12215C36 6.7508 36 10.5005 36 18C36 25.4995 36 29.2492 34.0902 31.8779C33.4734 32.7268 32.7268 33.4734 31.8779 34.0902C29.2492 36 25.4995 36 18 36C10.5005 36 6.7508 36 4.12215 34.0902C3.2732 33.4734 2.52663 32.7268 1.90983 31.8779C0 29.2492 0 25.4995 0 18Z" fill="#141414"/>
<path fill-rule="evenodd" clip-rule="evenodd" d="M10.8 22.175C12.1076 22.9492 13.6599 23.4001 15.3288 23.4001C20.7634 23.4001 23.7348 19.2448 23.7348 15.6416C23.7348 15.5235 23.732 15.4067 23.7262 15.29C24.3036 14.9052 24.8048 14.4253 25.2 13.8785C24.6708 14.0959 24.1013 14.2417 23.5037 14.3065C24.1136 13.971 24.5808 13.4351 24.8026 12.7992C24.2316 13.1111 23.5988 13.3379 22.9263 13.46C22.3877 12.9308 21.6195 12.6001 20.7699 12.6001C19.1384 12.6001 17.815 13.8198 17.815 15.3251C17.815 15.5397 17.8416 15.7469 17.892 15.9467C15.4368 15.8333 13.2588 14.7479 11.803 13.0982C11.5488 13.5019 11.4027 13.969 11.4027 14.4692C11.4027 15.4148 11.924 16.2498 12.7167 16.7385C12.2321 16.7257 11.7771 16.6022 11.3782 16.3976C11.3782 16.4091 11.3782 16.4206 11.3782 16.4321C11.3782 17.7524 12.3977 18.8553 13.7477 19.1057C13.5008 19.1685 13.2394 19.2009 12.9701 19.2009C12.7793 19.2009 12.5943 19.1847 12.4143 19.1523C12.7894 20.2364 13.8809 21.0248 15.1733 21.0457C14.1624 21.7774 12.8902 22.2121 11.5049 22.2121C11.2666 22.2121 11.0319 22.2013 10.8 22.175Z" fill="white"/>
</svg>
