<svg width="36" height="36" viewBox="0 0 36 36" fill="none" xmlns="http://www.w3.org/2000/svg">
<path d="M0 18C0 10.5005 0 6.7508 1.90983 4.12215C2.52663 3.2732 3.2732 2.52663 4.12215 1.90983C6.7508 0 10.5005 0 18 0C25.4995 0 29.2492 0 31.8779 1.90983C32.7268 2.52663 33.4734 3.2732 34.0902 4.12215C36 6.7508 36 10.5005 36 18C36 25.4995 36 29.2492 34.0902 31.8779C33.4734 32.7268 32.7268 33.4734 31.8779 34.0902C29.2492 36 25.4995 36 18 36C10.5005 36 6.7508 36 4.12215 34.0902C3.2732 33.4734 2.52663 32.7268 1.90983 31.8779C0 29.2492 0 25.4995 0 18Z" fill="#141414"/>
<path fill-rule="evenodd" clip-rule="evenodd" d="M21.8955 12.9554C22.445 15.195 20.7362 17.0022 18.873 17.3934C13.9276 18.4355 11.7933 11.5273 17.0701 10.1361C19.4892 9.49937 21.4651 11.2082 21.8955 12.9554ZM19.8931 13.3016C19.6494 12.4502 18.6928 11.6723 17.4997 11.9862C14.9333 12.6544 16.0041 16.1509 18.5037 15.5255C19.3847 15.3055 20.2045 14.3933 19.8931 13.3016ZM15.3004 18.0253C16.9577 18.9045 19.131 18.8864 20.7676 17.9845C20.8544 17.9371 20.9376 17.882 21.0216 17.8263C21.2772 17.6569 21.541 17.4822 21.9405 17.5015C22.6547 17.5384 24.098 18.6774 21.5589 19.8661C20.6342 20.298 20.2947 20.3629 19.8522 20.4473C19.6275 20.4902 19.3762 20.5382 19.0082 20.6419C19.147 20.8956 20.2699 21.8906 21.0789 22.6074C21.3678 22.8633 21.6166 23.0838 21.7663 23.2224C22.7128 24.0979 21.9073 25.0926 20.9368 24.993C20.3205 24.9289 18.3861 23.0239 18.0352 22.6322C17.6845 22.7953 17.2146 23.2559 16.7336 23.7273C16.1328 24.3161 15.5148 24.9218 15.0905 24.9855C14.0819 25.1372 13.2408 24.0715 14.266 23.1507L16.9917 20.6593C16.8468 20.5878 16.5246 20.5247 16.2105 20.4632C15.9906 20.4201 15.7746 20.3778 15.6264 20.334C11.6531 19.1513 13.0691 17.4003 14.2071 17.5052C14.5061 17.5333 14.783 17.7077 15.0333 17.8652C15.1261 17.9236 15.2152 17.9797 15.3004 18.0253Z" fill="white"/>
</svg>
