<svg width="36" height="36" viewBox="0 0 36 36" fill="none" xmlns="http://www.w3.org/2000/svg">
<path d="M0 18C0 10.5005 0 6.7508 1.90983 4.12215C2.52663 3.2732 3.2732 2.52663 4.12215 1.90983C6.7508 0 10.5005 0 18 0C25.4995 0 29.2492 0 31.8779 1.90983C32.7268 2.52663 33.4734 3.2732 34.0902 4.12215C36 6.7508 36 10.5005 36 18C36 25.4995 36 29.2492 34.0902 31.8779C33.4734 32.7268 32.7268 33.4734 31.8779 34.0902C29.2492 36 25.4995 36 18 36C10.5005 36 6.7508 36 4.12215 34.0902C3.2732 33.4734 2.52663 32.7268 1.90983 31.8779C0 29.2492 0 25.4995 0 18Z" fill="#141414"/>
<path fill-rule="evenodd" clip-rule="evenodd" d="M14.2895 9.054C15.2493 9.00982 15.5553 9 18 9C20.4447 9 20.7507 9.01064 21.7096 9.054C22.6685 9.09736 23.3231 9.25036 23.8958 9.47209C24.4955 9.69873 25.0396 10.053 25.4896 10.5112C25.9478 10.9604 26.3013 11.5036 26.5271 12.1042C26.7496 12.6769 26.9018 13.3315 26.946 14.2887C26.9902 15.2501 27 15.5561 27 18C27 20.4447 26.9894 20.7507 26.946 21.7105C26.9026 22.6677 26.7496 23.3223 26.5271 23.895C26.3013 24.4956 25.9472 25.0398 25.4896 25.4896C25.0396 25.9478 24.4955 26.3013 23.8958 26.5271C23.3231 26.7496 22.6685 26.9018 21.7113 26.946C20.7507 26.9902 20.4447 27 18 27C15.5553 27 15.2493 26.9894 14.2895 26.946C13.3323 26.9026 12.6777 26.7496 12.105 26.5271C11.5044 26.3012 10.9602 25.9472 10.5104 25.4896C10.0525 25.0402 9.69817 24.4963 9.47209 23.8958C9.25036 23.3231 9.09818 22.6685 9.054 21.7113C9.00982 20.7499 9 20.4439 9 18C9 15.5553 9.01064 15.2493 9.054 14.2904C9.09736 13.3315 9.25036 12.6769 9.47209 12.1042C9.6985 11.5037 10.0531 10.9598 10.5112 10.5104C10.9604 10.0526 11.504 9.69827 12.1042 9.47209C12.6769 9.25036 13.3315 9.09818 14.2887 9.054H14.2895ZM21.6368 10.674C20.6877 10.6306 20.403 10.6216 18 10.6216C15.597 10.6216 15.3123 10.6306 14.3632 10.674C13.4853 10.7141 13.0091 10.8605 12.6916 10.9841C12.2719 11.1477 11.9716 11.3416 11.6566 11.6566C11.358 11.9471 11.1282 12.3008 10.9841 12.6916C10.8605 13.0091 10.7141 13.4853 10.674 14.3632C10.6306 15.3123 10.6216 15.597 10.6216 18C10.6216 20.403 10.6306 20.6877 10.674 21.6368C10.7141 22.5147 10.8605 22.9909 10.9841 23.3084C11.1281 23.6986 11.358 24.0529 11.6566 24.3434C11.9471 24.642 12.3014 24.8719 12.6916 25.0159C13.0091 25.1395 13.4853 25.2859 14.3632 25.326C15.3123 25.3694 15.5962 25.3784 18 25.3784C20.4038 25.3784 20.6877 25.3694 21.6368 25.326C22.5147 25.2859 22.9909 25.1395 23.3084 25.0159C23.7281 24.8523 24.0284 24.6584 24.3434 24.3434C24.642 24.0529 24.8719 23.6986 25.0159 23.3084C25.1395 22.9909 25.2859 22.5147 25.326 21.6368C25.3694 20.6877 25.3784 20.403 25.3784 18C25.3784 15.597 25.3694 15.3123 25.326 14.3632C25.2859 13.4853 25.1395 13.0091 25.0159 12.6916C24.8523 12.2719 24.6584 11.9716 24.3434 11.6566C24.0528 11.3581 23.6992 11.1283 23.3084 10.9841C22.9909 10.8605 22.5147 10.7141 21.6368 10.674ZM16.8505 20.7745C17.4924 21.0417 18.2073 21.0778 18.8729 20.8765C19.5386 20.6752 20.1137 20.2491 20.5 19.6709C20.8864 19.0927 21.06 18.3983 20.9913 17.7064C20.9226 17.0144 20.6157 16.3677 20.1232 15.8768C19.8092 15.563 19.4295 15.3228 19.0115 15.1733C18.5936 15.0238 18.1476 14.9689 17.7059 15.0125C17.2641 15.0561 16.8375 15.1971 16.4567 15.4253C16.076 15.6535 15.7506 15.9633 15.504 16.3324C15.2573 16.7015 15.0956 17.1207 15.0304 17.5598C14.9652 17.9989 14.9982 18.447 15.127 18.8718C15.2558 19.2966 15.4771 19.6876 15.7751 20.0166C16.0731 20.3456 16.4404 20.6044 16.8505 20.7745ZM14.7289 14.7289C15.1585 14.2993 15.6684 13.9586 16.2297 13.7261C16.791 13.4936 17.3925 13.374 18 13.374C18.6075 13.374 19.209 13.4936 19.7703 13.7261C20.3316 13.9586 20.8415 14.2993 21.2711 14.7289C21.7007 15.1585 22.0414 15.6684 22.2739 16.2297C22.5064 16.791 22.626 17.3925 22.626 18C22.626 18.6075 22.5064 19.209 22.2739 19.7703C22.0414 20.3316 21.7007 20.8415 21.2711 21.2711C20.4035 22.1386 19.2269 22.626 18 22.626C16.7731 22.626 15.5965 22.1386 14.7289 21.2711C13.8614 20.4035 13.374 19.2269 13.374 18C13.374 16.7731 13.8614 15.5965 14.7289 14.7289ZM23.652 14.0629C23.7584 13.9625 23.8437 13.8417 23.9026 13.7078C23.9616 13.5739 23.993 13.4294 23.9952 13.2831C23.9973 13.1368 23.97 12.9915 23.915 12.8559C23.86 12.7203 23.7784 12.5971 23.6749 12.4937C23.5714 12.3902 23.4482 12.3085 23.3126 12.2535C23.177 12.1985 23.0317 12.1713 22.8854 12.1734C22.7391 12.1755 22.5947 12.207 22.4607 12.2659C22.3268 12.3249 22.2061 12.4101 22.1056 12.5165C21.9103 12.7236 21.8034 12.9986 21.8076 13.2831C21.8117 13.5677 21.9266 13.8394 22.1279 14.0407C22.3291 14.2419 22.6008 14.3568 22.8854 14.361C23.17 14.3651 23.445 14.2582 23.652 14.0629Z" fill="white"/>
</svg>
