<svg width="107" height="18" viewBox="0 0 107 18" fill="none" xmlns="http://www.w3.org/2000/svg">
<path fill-rule="evenodd" clip-rule="evenodd" d="M92.2884 5.35362C92.3758 9.72023 94.6733 12.3469 98.4622 12.3469H98.6906V9.84787C100.068 9.98895 101.102 11.0168 101.519 12.3469H103.507C102.97 10.3584 101.566 9.2567 100.699 8.84019C101.566 8.32292 102.795 7.05996 103.084 5.35362H101.277C100.901 6.74422 99.7721 8.00046 98.6906 8.12138V5.35362H96.8499V10.1972C95.728 9.92177 94.2702 8.55804 94.2097 5.35362H92.2884ZM98.2069 17.036H97.5082H97.4442C93.6911 17.036 91.7981 17.036 90.6291 15.8604C89.4535 14.678 89.4535 12.7836 89.4535 8.9947V8.28261V8.2189C89.4535 4.47899 89.4534 2.58596 90.6291 1.41696C91.8115 0.241333 93.7126 0.241333 97.5082 0.241333H98.2069C102.002 0.241333 103.904 0.241333 105.079 1.41696C106.248 2.59929 106.248 4.49371 106.248 8.28253V8.28261V8.9947V8.99478C106.248 12.7769 106.248 14.678 105.079 15.8604C103.904 17.036 102.002 17.036 98.2069 17.036ZM29.1324 3.53721V17.7056H31.3712V12.1555C31.7735 12.6506 32.2926 13.0675 32.9286 13.4062C33.5645 13.7319 34.2913 13.8948 35.109 13.8948C36.0564 13.8948 36.9065 13.6733 37.6593 13.2303C38.412 12.7744 38.996 12.149 39.4114 11.3543C39.8396 10.5465 40.0538 9.6345 40.0538 8.61829C40.0538 7.60207 39.8396 6.6966 39.4114 5.90186C38.996 5.0941 38.412 4.46874 37.6593 4.02577C36.9065 3.56978 36.0564 3.34178 35.109 3.34178C34.2654 3.34178 33.5191 3.52418 32.8702 3.88897C32.2213 4.24074 31.6891 4.67068 31.2738 5.17879L30.8066 3.53721H29.1324ZM36.8416 10.9829C36.2576 11.5823 35.4983 11.8819 34.5639 11.8819C33.6165 11.8819 32.8442 11.5823 32.2472 10.9829C31.6632 10.3706 31.3712 9.58239 31.3712 8.61829C31.3712 7.65418 31.6632 6.87248 32.2472 6.27317C32.8442 5.66084 33.6165 5.35467 34.5639 5.35467C35.4983 5.35467 36.2576 5.66084 36.8416 6.27317C37.4256 6.87248 37.7177 7.65418 37.7177 8.61829C37.7177 9.58239 37.4256 10.3706 36.8416 10.9829ZM17.6875 13.6994H19.9263V5.58918H24.3649V13.6994H26.6037V3.53721H17.6875V13.6994ZM46.8312 13.8948C45.7929 13.8948 44.8584 13.6733 44.0278 13.2303C43.2101 12.7744 42.5677 12.149 42.1005 11.3543C41.6462 10.5465 41.4191 9.6345 41.4191 8.61829C41.4191 7.60207 41.6462 6.6966 42.1005 5.90186C42.5677 5.0941 43.2101 4.46874 44.0278 4.02577C44.8584 3.56978 45.7929 3.34178 46.8312 3.34178C47.8694 3.34178 48.7974 3.56978 49.615 4.02577C50.4457 4.46874 51.0881 5.0941 51.5423 5.90186C52.0096 6.6966 52.2432 7.60207 52.2432 8.61829C52.2432 9.6345 52.0096 10.5465 51.5423 11.3543C51.0881 12.149 50.4457 12.7744 49.615 13.2303C48.7974 13.6733 47.8694 13.8948 46.8312 13.8948ZM46.8312 11.8428C47.7396 11.8428 48.4794 11.5497 49.0505 10.9634C49.6215 10.3641 49.9071 9.58239 49.9071 8.61829C49.9071 7.65418 49.6215 6.87899 49.0505 6.29272C48.4794 5.69341 47.7396 5.39376 46.8312 5.39376C45.9227 5.39376 45.1829 5.69341 44.6118 6.29272C44.0408 6.87899 43.7552 7.65418 43.7552 8.61829C43.7552 9.58239 44.0408 10.3641 44.6118 10.9634C45.1829 11.5497 45.9227 11.8428 46.8312 11.8428ZM64.0791 9.22411C64.1051 8.93748 64.1181 8.69646 64.1181 8.50103C64.1181 7.53693 63.8909 6.66403 63.4367 5.88232C62.9954 5.08759 62.3725 4.46874 61.5678 4.02577C60.7761 3.56978 59.8741 3.34178 58.8618 3.34178C57.8494 3.34178 56.9409 3.56978 56.1363 4.02577C55.3446 4.46874 54.7216 5.0941 54.2674 5.90186C53.8261 6.6966 53.6055 7.60207 53.6055 8.61829C53.6055 9.6345 53.8261 10.5465 54.2674 11.3543C54.7216 12.149 55.3446 12.7744 56.1363 13.2303C56.9409 13.6733 57.8494 13.8948 58.8618 13.8948C59.952 13.8948 60.9383 13.6407 61.8209 13.1326C62.7164 12.6245 63.3458 11.9014 63.7092 10.9634L61.6067 10.6116C61.3601 10.9895 61.0032 11.2891 60.536 11.5106C60.0817 11.7321 59.5691 11.8428 58.998 11.8428C58.1544 11.8428 57.4601 11.6083 56.915 11.1393C56.3699 10.6572 56.0454 10.0188 55.9416 9.22411H64.0791ZM57.0902 5.88232C57.5964 5.49147 58.1869 5.29604 58.8618 5.29604C59.5496 5.29604 60.1402 5.49798 60.6333 5.90186C61.1395 6.29272 61.4899 6.81385 61.6846 7.46527H56.0779C56.2596 6.80082 56.597 6.27317 57.0902 5.88232ZM75.0903 13.6994H72.1506L68.6464 9.65405H68.1013V13.6994H65.8625V3.53721H68.1013V7.48482H68.6464L72.0338 3.53721H74.7009L70.4375 8.42286L75.0903 13.6994ZM78.8877 13.6994H81.1265V5.58918H84.6307V3.53721H75.3835V5.58918H78.8877V13.6994Z" fill="#B8B8B8"/>
<path fill-rule="evenodd" clip-rule="evenodd" d="M0.884461 17.0357L0.88446 0.241089L2.41125 0.241089L2.41125 17.0357H0.884461Z" fill="#B8B8B8"/>
</svg>
