<svg width="64" height="64" viewBox="0 0 64 64" fill="none" xmlns="http://www.w3.org/2000/svg">
<path d="M0 32C0 16.9151 0 9.37258 4.68629 4.68629C9.37258 0 16.9151 0 32 0V0C47.0849 0 54.6274 0 59.3137 4.68629C64 9.37258 64 16.9151 64 32V32C64 47.0849 64 54.6274 59.3137 59.3137C54.6274 64 47.0849 64 32 64V64C16.9151 64 9.37258 64 4.68629 59.3137C0 54.6274 0 47.0849 0 32V32Z" fill="#B5B3FB"/>
<path fill-rule="evenodd" clip-rule="evenodd" d="M27.0509 17.7125C27.0509 16.5941 26.1443 15.6875 25.0259 15.6875C23.9075 15.6875 23.0009 16.5941 23.0009 17.7125V18.6719C22.4469 18.7626 20.8619 18.9013 20.4463 19.113C19.3879 19.6523 18.5274 20.5128 17.9881 21.5712C17.375 22.7745 17.375 24.3496 17.375 27.4999V38.7499C17.375 41.9002 17.375 43.4754 17.9881 44.6786C18.5274 45.7371 19.3879 46.5976 20.4463 47.1369C21.6496 47.7499 24.3497 47.7499 27.5 47.7499H36.5C39.6503 47.7499 42.3504 47.7499 43.5537 47.1369C44.6121 46.5976 45.4726 45.7371 46.0119 44.6786C46.625 43.4754 46.625 41.9002 46.625 38.7499V27.4999C46.625 24.3497 46.625 22.7745 46.0119 21.5712C45.4726 20.5128 44.6121 19.6523 43.5537 19.113C43.1381 18.9013 41.5531 18.7626 40.9991 18.6719V17.7125C40.9991 16.5941 40.0925 15.6875 38.9741 15.6875C37.8557 15.6875 36.9491 16.5941 36.9491 17.7125V18.5C36.8031 18.4999 36.6534 18.4999 36.5 18.4999H34.025V17.7125C34.025 16.5941 33.1184 15.6875 32 15.6875C30.8816 15.6875 29.975 16.5941 29.975 17.7125V18.4999H27.5C27.3466 18.4999 27.1969 18.4999 27.0509 18.5V17.7125ZM38.8182 27.9942C39.4773 28.6532 39.4773 29.7217 38.8182 30.3807L30.9432 38.2557C30.2842 38.9147 29.2158 38.9147 28.5568 38.2557L25.1818 34.8807C24.5227 34.2217 24.5227 33.1532 25.1818 32.4942C25.8408 31.8352 26.9092 31.8352 27.5682 32.4942L29.75 34.676L36.4318 27.9942C37.0908 27.3352 38.1592 27.3352 38.8182 27.9942Z" fill="#7470FF"/>
</svg>
