<svg width="64" height="64" viewBox="0 0 64 64" fill="none" xmlns="http://www.w3.org/2000/svg">
<path d="M0 32C0 16.9151 0 9.37258 4.68629 4.68629C9.37258 0 16.9151 0 32 0V0C47.0849 0 54.6274 0 59.3137 4.68629C64 9.37258 64 16.9151 64 32V32C64 47.0849 64 54.6274 59.3137 59.3137C54.6274 64 47.0849 64 32 64V64C16.9151 64 9.37258 64 4.68629 59.3137C0 54.6274 0 47.0849 0 32V32Z" fill="#51EDD1"/>
<path fill-rule="evenodd" clip-rule="evenodd" d="M41.5 23.8783C41.5 18.6073 37.2467 14.375 32 14.375L31.5268 14.3866C26.5095 14.6338 22.5 18.789 22.5 23.8787V28.625H20.1309C18.8324 28.625 17.75 29.6852 17.75 30.9929V45.2571C17.75 46.549 18.816 47.625 20.1309 47.625H43.8691C45.1676 47.625 46.25 46.5648 46.25 45.2571V30.9929C46.25 29.701 45.184 28.625 43.8691 28.625H41.5V23.8783ZM31.6432 19.138L32 19.125C34.6234 19.125 36.75 21.2334 36.75 23.875V28.625H27.25V23.875C27.25 21.3709 29.171 19.3194 31.6432 19.138ZM32 33C30.8954 33 30 33.8954 30 35V40C30 41.1046 30.8954 42 32 42C33.1046 42 34 41.1046 34 40V35C34 33.8954 33.1046 33 32 33Z" fill="#23C5A8"/>
</svg>
