<svg width="64" height="64" viewBox="0 0 64 64" fill="none" xmlns="http://www.w3.org/2000/svg">
<path d="M0 32C0 16.9151 0 9.37258 4.68629 4.68629C9.37258 0 16.9151 0 32 0V0C47.0849 0 54.6274 0 59.3137 4.68629C64 9.37258 64 16.9151 64 32V32C64 47.0849 64 54.6274 59.3137 59.3137C54.6274 64 47.0849 64 32 64V64C16.9151 64 9.37258 64 4.68629 59.3137C0 54.6274 0 47.0849 0 32V32Z" fill="#FFF8BC"/>
<path fill-rule="evenodd" clip-rule="evenodd" d="M37.0401 32C41.376 19.625 30.5362 15.5 30.5362 15.5C30.5362 21.6875 26.5396 23.0793 22.9484 25.8125C17.5285 29.9375 17 33.0312 17 36.125C17 44.375 27.2843 47.4688 27.2843 47.4688C22.9484 39.2188 29.4523 35.0938 29.4523 35.0938C29.4523 45.4062 38.1241 48.5 38.1241 48.5C53.2998 41.2812 42.46 24.7812 42.46 24.7812C42.46 29.9375 37.0401 32 37.0401 32Z" fill="#FFD913"/>
</svg>
