<svg width="64" height="64" viewBox="0 0 64 64" fill="none" xmlns="http://www.w3.org/2000/svg">
<path d="M0 32C0 16.9151 0 9.37258 4.68629 4.68629C9.37258 0 16.9151 0 32 0V0C47.0849 0 54.6274 0 59.3137 4.68629C64 9.37258 64 16.9151 64 32V32C64 47.0849 64 54.6274 59.3137 59.3137C54.6274 64 47.0849 64 32 64V64C16.9151 64 9.37258 64 4.68629 59.3137C0 54.6274 0 47.0849 0 32V32Z" fill="#CA74FF"/>
<path d="M27.6004 26.9L31.8654 26.8988L20.5836 38.1839C19.1388 39.6288 19.1388 41.9714 20.5837 43.4163C22.0286 44.8612 24.3714 44.8612 25.8163 43.4163L37.1 32.1322V36.4C37.1 38.4435 38.7565 40.1 40.8 40.1C42.8435 40.1 44.5 38.4435 44.5 36.4V23.2C44.5 21.1565 42.8435 19.5 40.8 19.5H27.6C25.5565 19.5 23.9 21.1565 23.9 23.2C23.9 25.2435 25.557 26.9 27.6004 26.9Z" fill="#A614FF"/>
</svg>
