<svg width="64" height="64" viewBox="0 0 64 64" fill="none" xmlns="http://www.w3.org/2000/svg">
<path d="M0 32C0 16.9151 0 9.37258 4.68629 4.68629C9.37258 0 16.9151 0 32 0V0C47.0849 0 54.6274 0 59.3137 4.68629C64 9.37258 64 16.9151 64 32V32C64 47.0849 64 54.6274 59.3137 59.3137C54.6274 64 47.0849 64 32 64V64C16.9151 64 9.37258 64 4.68629 59.3137C0 54.6274 0 47.0849 0 32V32Z" fill="#BCDBFF"/>
<path d="M27.5943 46.0833C26.5796 50.1698 28.103 51.0164 30.8283 48.033L42.276 34.8792C44.9246 31.6463 44.2612 29.0489 40.4469 28.3996L34.9275 27.3774C34.6051 27.3177 34.3921 27.0079 34.4518 26.6854C34.4538 26.6748 34.456 26.6642 34.4586 26.6537L36.5826 17.8901C37.6001 13.7776 35.9042 13.0329 33.3603 15.9472C29.7052 20.0685 26.9275 23.1818 25.0273 25.2871C24.3648 26.0211 23.2984 27.1668 21.8282 28.7242C18.6059 32.2999 20.3018 34.8931 24.0289 35.5424L29.3037 36.488C29.6265 36.5459 29.8412 36.8544 29.7834 37.1772C29.7812 37.1896 29.7785 37.202 29.7755 37.2142L27.5943 46.0833Z" fill="#6DB0FF"/>
</svg>
