<svg width="174" height="51" viewBox="0 0 174 51" fill="none" xmlns="http://www.w3.org/2000/svg">
<g clip-path="url(#clip0_3_1429)">
<path d="M167.556 50.981H6.44444C2.9 50.981 0 48.1133 0 44.6084V6.37273C0 2.8678 2.9 0.00012207 6.44444 0.00012207H167.556C171.1 0.00012207 174 2.8678 174 6.37273V44.6084C174 48.1133 171.1 50.981 167.556 50.981Z" fill="black"/>
<path d="M167.556 1.01986C170.546 1.01986 172.969 3.41596 172.969 6.37286V44.6085C172.969 47.5654 170.546 49.9615 167.556 49.9615H6.44444C3.45422 49.9615 1.03111 47.5654 1.03111 44.6085V6.37286C1.03111 3.41596 3.45422 1.01986 6.44444 1.01986H167.556ZM167.556 0.000244141H6.44444C2.9 0.000244141 0 2.86792 0 6.37286V44.6085C0 48.1135 2.9 50.9811 6.44444 50.9811H167.556C171.1 50.9811 174 48.1135 174 44.6085V6.37286C174 2.86792 171.1 0.000244141 167.556 0.000244141Z" fill="#A6A6A6"/>
<path d="M87.8249 27.721C84.796 27.721 82.3213 30.0024 82.3213 33.1377C82.3213 36.2603 84.796 38.5544 87.8249 38.5544C90.8537 38.5544 93.3284 36.2603 93.3284 33.1377C93.3284 30.0024 90.8537 27.721 87.8249 27.721ZM87.8249 36.426C86.1622 36.426 84.7315 35.075 84.7315 33.1377C84.7315 31.1877 86.1622 29.8494 87.8249 29.8494C89.4875 29.8494 90.9182 31.1877 90.9182 33.1377C90.9182 35.075 89.4746 36.426 87.8249 36.426ZM75.8124 27.721C72.7835 27.721 70.3089 30.0024 70.3089 33.1377C70.3089 36.2603 72.7835 38.5544 75.8124 38.5544C78.8413 38.5544 81.316 36.2603 81.316 33.1377C81.316 30.0024 78.8413 27.721 75.8124 27.721ZM75.8124 36.426C74.1497 36.426 72.7191 35.075 72.7191 33.1377C72.7191 31.1877 74.1497 29.8494 75.8124 29.8494C77.4751 29.8494 78.9057 31.1877 78.9057 33.1377C78.9057 35.075 77.4751 36.426 75.8124 36.426ZM61.5315 29.3906V31.6847H67.0995C66.932 32.972 66.4937 33.9279 65.8364 34.5779C65.0244 35.3808 63.7613 36.2603 61.5444 36.2603C58.116 36.2603 55.4351 33.5328 55.4351 30.1426C55.4351 26.7523 58.116 24.0249 61.5444 24.0249C63.3875 24.0249 64.7409 24.7386 65.7333 25.669L67.3702 24.0503C65.9782 22.7376 64.1351 21.7307 61.5315 21.7307C56.84 21.7307 52.896 25.5033 52.896 30.1553C52.896 34.7946 56.84 38.5799 61.5315 38.5799C64.0706 38.5799 65.9782 37.7642 67.4733 36.222C69.0071 34.7054 69.484 32.5642 69.484 30.8435C69.484 30.3083 69.4453 29.8112 69.3551 29.4033H61.5315V29.3906ZM119.931 31.1749C119.48 29.9641 118.088 27.721 115.24 27.721C112.417 27.721 110.071 29.9131 110.071 33.1377C110.071 36.1711 112.391 38.5544 115.51 38.5544C118.024 38.5544 119.48 37.0377 120.073 36.1583L118.204 34.922C117.585 35.8269 116.735 36.426 115.51 36.426C114.286 36.426 113.409 35.8652 112.855 34.7818L120.189 31.7867L119.931 31.1749ZM112.456 32.9847C112.391 30.8945 114.092 29.8239 115.317 29.8239C116.271 29.8239 117.083 30.2955 117.353 30.971L112.456 32.9847ZM106.501 38.2358H108.911V22.3042H106.501V38.2358ZM102.557 28.9318H102.467C101.925 28.2945 100.894 27.721 99.5795 27.721C96.8342 27.721 94.3209 30.1043 94.3209 33.1632C94.3209 36.1965 96.8342 38.5672 99.5795 38.5672C100.881 38.5672 101.925 37.9936 102.467 37.3309H102.544V38.1083C102.544 40.1858 101.423 41.2946 99.6182 41.2946C98.1489 41.2946 97.2337 40.2495 96.86 39.3701L94.7591 40.2368C95.3648 41.677 96.9631 43.4358 99.6182 43.4358C102.441 43.4358 104.825 41.7917 104.825 37.7897V28.0523H102.544V28.9318H102.557ZM99.7857 36.426C98.1231 36.426 96.7311 35.0495 96.7311 33.1632C96.7311 31.2514 98.1231 29.8622 99.7857 29.8622C101.423 29.8622 102.712 31.2641 102.712 33.1632C102.724 35.0495 101.436 36.426 99.7857 36.426ZM131.222 22.3042H125.46V38.2358H127.871V32.1945H131.235C133.903 32.1945 136.519 30.2828 136.519 27.2494C136.519 24.216 133.877 22.3042 131.222 22.3042ZM131.273 29.9769H127.858V24.5092H131.273C133.078 24.5092 134.096 25.9876 134.096 27.2367C134.096 28.4857 133.078 29.9769 131.273 29.9769ZM146.147 27.6955C144.407 27.6955 142.603 28.4602 141.855 30.1298L143.995 31.0092C144.446 30.1298 145.296 29.8367 146.186 29.8367C147.436 29.8367 148.699 30.5759 148.712 31.8887V32.0543C148.274 31.8122 147.346 31.4426 146.199 31.4426C143.892 31.4426 141.559 32.6916 141.559 35.024C141.559 37.1524 143.44 38.5289 145.554 38.5289C147.165 38.5289 148.068 37.8152 148.622 36.974H148.699V38.2103H151.019V32.1053C151.032 29.2759 148.892 27.6955 146.147 27.6955ZM145.851 36.426C145.064 36.426 143.969 36.0309 143.969 35.075C143.969 33.8514 145.335 33.3798 146.521 33.3798C147.578 33.3798 148.08 33.6093 148.712 33.9151C148.532 35.3808 147.243 36.426 145.851 36.426ZM159.487 28.0396L156.729 34.9475H156.652L153.79 28.0396H151.2L155.492 37.7005L153.043 43.0662H155.556L162.168 28.0396H159.487ZM137.834 38.2358H140.244V22.3042H137.834V38.2358Z" fill="white"/>
<path d="M13.4559 9.61107C13.0821 10.0062 12.863 10.6179 12.863 11.3954V39.5878C12.863 40.378 13.0821 40.9898 13.4559 41.3722L13.5461 41.4614L29.5154 25.6828V25.4916V25.3004L13.5461 9.52185L13.4559 9.61107Z" fill="url(#paint0_linear_3_1429)"/>
<path d="M34.8388 30.9458L29.5157 25.682V25.4908V25.2997L34.8388 20.0359L34.9548 20.0996L41.2574 23.6428C43.0619 24.6497 43.0619 26.3065 41.2574 27.3262L34.9548 30.8693L34.8388 30.9458Z" fill="url(#paint1_linear_3_1429)"/>
<path d="M34.9547 30.882L29.5155 25.4907L13.456 41.3713C14.0489 41.9958 15.0284 42.0723 16.1369 41.4477L34.9547 30.882Z" fill="url(#paint2_linear_3_1429)"/>
<path d="M34.9558 20.1124L16.1251 9.53383C15.0167 8.90932 14.0371 8.98579 13.4442 9.6103L29.5167 25.4909L34.9558 20.1124Z" fill="url(#paint3_linear_3_1429)"/>
<path opacity="0.2" d="M34.8385 30.7546L16.1238 41.2695C15.0798 41.8557 14.1389 41.8175 13.546 41.2822L13.4558 41.3714L13.546 41.4606C14.1518 41.9959 15.0798 42.0342 16.1238 41.4479L34.9545 30.8693L34.8385 30.7546Z" fill="black"/>
<path opacity="0.12" d="M13.456 41.1931C13.0822 40.798 12.8631 40.1863 12.8631 39.4088V39.6C12.8631 40.3902 13.0822 41.002 13.456 41.3843L13.5462 41.2951L13.456 41.1931Z" fill="black"/>
<path opacity="0.12" d="M41.2573 27.1476L34.8257 30.7545L34.9417 30.8692L41.2444 27.326C42.1466 26.8162 42.5977 26.1535 42.5977 25.4907C42.5333 26.0897 42.0822 26.6888 41.2573 27.1476Z" fill="black"/>
<path opacity="0.25" d="M16.124 9.7122L41.2574 23.8339C42.0694 24.2927 42.5334 24.879 42.6107 25.4908C42.6107 24.828 42.1596 24.1525 41.2574 23.6555L16.124 9.53377C14.3196 8.5269 12.8503 9.36808 12.8503 11.4073V11.5985C12.8503 9.54652 14.3325 8.70533 16.124 9.7122Z" fill="white"/>
<path d="M54.2752 18.1875H53.3214V15.6257H54.0818C54.752 15.0522 55.0743 14.0836 55.0614 12.6943V8.92175H60.2298V15.6257H61.0934V18.1875H60.1396V16.5689H54.2752V18.1875ZM56.0667 12.7071C56.0796 13.9179 55.8347 14.8865 55.332 15.6385H59.2374V9.8649H56.0667V12.7071Z" fill="white" stroke="white" stroke-width="0.171438" stroke-miterlimit="10"/>
<path d="M68.8398 15.5746C68.0794 16.352 67.1385 16.7344 66.0043 16.7344C64.87 16.7344 63.9291 16.352 63.1687 15.5746C62.4083 14.7971 62.0345 13.8539 62.0345 12.7451C62.0345 11.6363 62.4083 10.6804 63.1687 9.91568C63.9291 9.13822 64.87 8.75586 66.0043 8.75586C67.1256 8.75586 68.0665 9.13822 68.8398 9.91568C69.6003 10.6931 69.9869 11.6363 69.9869 12.7451C69.9869 13.8667 69.6003 14.8098 68.8398 15.5746ZM63.9034 14.9373C64.4705 15.5108 65.1794 15.7912 66.0043 15.7912C66.8291 15.7912 67.538 15.5108 68.1051 14.9373C68.6723 14.3638 68.9687 13.6373 68.9687 12.7451C68.9687 11.8529 68.6851 11.1265 68.1051 10.5529C67.538 9.9794 66.842 9.68626 66.0043 9.68626C65.1794 9.68626 64.4705 9.96666 63.9034 10.5402C63.3363 11.1265 63.0527 11.8529 63.0527 12.7451C63.0527 13.6373 63.3363 14.3638 63.9034 14.9373Z" fill="white" stroke="white" stroke-width="0.171438" stroke-miterlimit="10"/>
<path d="M74.9878 16.7345C73.8536 16.7345 72.8998 16.3521 72.1265 15.5874C71.3531 14.8227 70.9665 13.8795 70.9665 12.7325C70.9665 11.5981 71.3531 10.6423 72.1265 9.87754C72.8998 9.11283 73.8536 8.73047 74.9878 8.73047C76.1478 8.73047 77.1016 9.15106 77.8234 9.9795L77.1274 10.6423C76.5989 9.99225 75.89 9.67362 74.9749 9.67362C74.1371 9.67362 73.4153 9.95401 72.8353 10.5148C72.2553 11.0756 71.9718 11.8148 71.9718 12.7197C71.9718 13.6246 72.2553 14.3639 72.8353 14.9246C73.4153 15.4854 74.1242 15.7658 74.9749 15.7658C75.9029 15.7658 76.6891 15.3962 77.3465 14.657L78.0425 15.3452C77.6945 15.7658 77.2434 16.0972 76.7149 16.3394C76.1865 16.6198 75.6065 16.7345 74.9878 16.7345Z" fill="white" stroke="white" stroke-width="0.171438" stroke-miterlimit="10"/>
<path d="M82.0767 16.5689H81.0842V9.8649H78.9189V8.92175H84.2291V9.8649H82.0638V16.5689H82.0767Z" fill="white" stroke="white" stroke-width="0.171438" stroke-miterlimit="10"/>
<path d="M91.0603 8.92175L88.1346 15.3708C87.735 16.2757 87.1292 16.7346 86.3301 16.7346C86.0981 16.7346 85.8403 16.6836 85.5568 16.5689L85.8146 15.664C85.9821 15.7532 86.1497 15.8042 86.3301 15.8042C86.5621 15.8042 86.7426 15.7659 86.8714 15.6767C87.0003 15.5875 87.1163 15.4218 87.2194 15.1924L87.503 14.5806L84.8994 8.92175H86.0723L87.9799 13.3061H88.0186L89.8874 8.92175H91.0603Z" fill="white" stroke="white" stroke-width="0.171438" stroke-miterlimit="10"/>
<path d="M92.1814 16.5689V8.92175H97.7752V16.5689H96.7827V9.8649H93.1738V16.5689H92.1814Z" fill="white" stroke="white" stroke-width="0.171438" stroke-miterlimit="10"/>
<path d="M99.5411 16.5689V8.92175H100.534V12.1973H104.4V8.92175H105.393V16.5689H104.4V13.1149H100.534V16.5689H99.5411Z" fill="white" stroke="white" stroke-width="0.171438" stroke-miterlimit="10"/>
<path d="M113.5 15.5746C112.739 16.352 111.798 16.7344 110.664 16.7344C109.53 16.7344 108.589 16.352 107.829 15.5746C107.068 14.7971 106.694 13.8539 106.694 12.7451C106.694 11.6363 107.068 10.6804 107.829 9.91568C108.589 9.13822 109.53 8.75586 110.664 8.75586C111.785 8.75586 112.726 9.13822 113.5 9.91568C114.26 10.6931 114.647 11.6363 114.647 12.7451C114.634 13.8667 114.26 14.8098 113.5 15.5746ZM108.563 14.9373C109.13 15.5108 109.839 15.7912 110.664 15.7912C111.489 15.7912 112.198 15.5108 112.765 14.9373C113.332 14.3638 113.629 13.6373 113.629 12.7451C113.629 11.8529 113.345 11.1265 112.765 10.5529C112.185 9.9794 111.489 9.68626 110.664 9.68626C109.839 9.68626 109.13 9.96666 108.563 10.5402C107.983 11.1265 107.7 11.8529 107.7 12.7451C107.7 13.6373 107.983 14.3638 108.563 14.9373Z" fill="white" stroke="white" stroke-width="0.171438" stroke-miterlimit="10"/>
<path d="M118.694 16.5689V8.92175H121.491C122.097 8.92175 122.625 9.12568 123.063 9.50803C123.514 9.91588 123.734 10.4129 123.734 10.9992C123.734 11.3688 123.643 11.6875 123.45 11.9551C123.257 12.2355 123.012 12.4394 122.69 12.5796V12.6179C123.076 12.7453 123.386 12.962 123.63 13.2806C123.875 13.5992 124.004 13.9561 124.004 14.364C124.004 14.9885 123.772 15.511 123.308 15.9189C122.831 16.365 122.277 16.5689 121.646 16.5689H118.694ZM119.686 12.1973H121.491C121.865 12.1973 122.161 12.0698 122.393 11.8277C122.625 11.5855 122.728 11.3179 122.728 11.0247C122.728 10.7316 122.625 10.4639 122.393 10.2218C122.174 9.97961 121.89 9.85215 121.53 9.85215H119.686V12.1973ZM119.686 15.6257H121.684C122.071 15.6257 122.38 15.4983 122.612 15.2306C122.844 14.963 122.973 14.6826 122.973 14.364C122.973 14.0453 122.857 13.7649 122.599 13.51C122.354 13.2551 122.032 13.1149 121.633 13.1149H119.674V15.6257H119.686Z" fill="white" stroke="white" stroke-width="0.171438" stroke-miterlimit="10"/>
</g>
<defs>
<linearGradient id="paint0_linear_3_1429" x1="28.0972" y1="11.102" x2="6.70896" y2="32.7313" gradientUnits="userSpaceOnUse">
<stop stop-color="#00A0FF"/>
<stop offset="0.00657445" stop-color="#00A1FF"/>
<stop offset="0.2601" stop-color="#00BEFF"/>
<stop offset="0.5122" stop-color="#00D2FF"/>
<stop offset="0.7604" stop-color="#00DFFF"/>
<stop offset="1" stop-color="#00E3FF"/>
</linearGradient>
<linearGradient id="paint1_linear_3_1429" x1="43.6088" y1="25.4928" x2="12.4216" y2="25.4928" gradientUnits="userSpaceOnUse">
<stop stop-color="#FFE000"/>
<stop offset="0.4087" stop-color="#FFBD00"/>
<stop offset="0.7754" stop-color="#FFA500"/>
<stop offset="1" stop-color="#FF9C00"/>
</linearGradient>
<linearGradient id="paint2_linear_3_1429" x1="31.9991" y1="28.4173" x2="2.99496" y2="57.7484" gradientUnits="userSpaceOnUse">
<stop stop-color="#FF3A44"/>
<stop offset="1" stop-color="#C31162"/>
</linearGradient>
<linearGradient id="paint3_linear_3_1429" x1="9.40638" y1="0.225101" x2="22.358" y2="13.3226" gradientUnits="userSpaceOnUse">
<stop stop-color="#32A071"/>
<stop offset="0.0685" stop-color="#2DA771"/>
<stop offset="0.4762" stop-color="#15CF74"/>
<stop offset="0.8009" stop-color="#06E775"/>
<stop offset="1" stop-color="#00F076"/>
</linearGradient>
<clipPath id="clip0_3_1429">
<rect width="174" height="50.9809" fill="white"/>
</clipPath>
</defs>
</svg>
