<svg width="174" height="51" viewBox="0 0 174 51" fill="none" xmlns="http://www.w3.org/2000/svg">
<g clip-path="url(#clip0_3_1457)">
<path d="M161.727 0.00012207H12.283C11.8103 0.00012207 11.3438 0.00012207 10.8732 0.00212038C10.4783 0.00411869 10.0875 0.0121119 9.68849 0.0181069C8.83116 0.03809 7.96359 0.090046 7.10626 0.239919C6.24483 0.387794 5.44274 0.639581 4.65702 1.02925C3.88767 1.41493 3.1838 1.9165 2.57405 2.512C1.95816 3.10749 1.44662 3.79891 1.05581 4.55227C0.654766 5.31763 0.401044 6.10496 0.251676 6.94625C0.0961688 7.77954 0.042969 8.62283 0.0204614 9.46412C0.00818458 9.84979 0.00818458 10.2375 0 10.6231C0 11.0788 0 11.5364 0 11.996V38.9832C0 39.4468 0 39.9024 0 40.36C0.00613843 40.7497 0.00818458 41.1293 0.0204614 41.519C0.042969 42.3623 0.0961688 43.2056 0.251676 44.0369C0.401044 44.8802 0.656812 45.6695 1.05581 46.4329C1.44662 47.1822 1.95816 47.8736 2.57405 48.4631C3.1838 49.0646 3.88767 49.5642 4.65907 49.9459C5.44479 50.3396 6.24483 50.5873 7.1083 50.7392C7.96359 50.8891 8.8332 50.939 9.69054 50.961C10.0895 50.969 10.4803 50.975 10.8753 50.975C11.3459 50.977 11.8124 50.977 12.285 50.977H161.727C162.19 50.977 162.66 50.977 163.123 50.975C163.516 50.975 163.919 50.971 164.309 50.961C165.173 50.937 166.038 50.8891 166.886 50.7392C167.749 50.5873 168.551 50.3396 169.343 49.9459C170.112 49.5642 170.818 49.0646 171.426 48.4631C172.04 47.8716 172.551 47.1822 172.948 46.4329C173.343 45.6695 173.601 44.8802 173.746 44.0369C173.904 43.2036 173.955 42.3603 173.986 41.519C173.99 41.1273 173.99 40.7497 173.99 40.36C174 39.9024 174 39.4488 174 38.9832V11.998C174 11.5364 174 11.0808 173.99 10.6251C173.99 10.2395 173.99 9.85179 173.986 9.46612C173.955 8.62283 173.906 7.77954 173.746 6.94825C173.601 6.10496 173.343 5.31962 172.948 4.55427C172.551 3.80091 172.04 3.11149 171.426 2.514C170.816 1.9185 170.112 1.41692 169.343 1.03125C168.551 0.64158 167.747 0.389793 166.886 0.241918C166.038 0.0920443 165.173 0.0400883 164.309 0.0201052C163.917 0.0141102 163.514 0.006117 163.123 0.00411869C162.66 0.00012207 162.19 0.00012207 161.727 0.00012207Z" fill="#C0C1C1"/>
<path d="M10.8793 49.8802C10.4864 49.8802 10.1038 49.8762 9.71504 49.8662C8.9948 49.8462 8.14156 49.8063 7.30673 49.6604C6.52101 49.5205 5.82123 49.2947 5.1726 48.971C4.50147 48.6372 3.89785 48.2076 3.37199 47.692C2.83795 47.1805 2.40008 46.593 2.05837 45.9355C1.72485 45.3001 1.49568 44.6186 1.35859 43.8513C1.20104 43.004 1.16011 42.1467 1.14374 41.4933C1.13556 41.2275 1.12533 40.3443 1.12533 40.3443V10.6234C1.12533 10.6234 1.1376 9.75412 1.14374 9.49834C1.16011 8.8389 1.20104 7.98162 1.35654 7.14233C1.49363 6.37099 1.7228 5.68956 2.05632 5.0521C2.39803 4.39266 2.83795 3.80116 3.36381 3.29359C3.89581 2.77203 4.50351 2.34239 5.17055 2.00667C5.83146 1.67895 6.52919 1.45514 7.30059 1.32325C8.16816 1.17138 9.048 1.13341 9.71709 1.11743L10.8793 1.10144H163.117L164.293 1.11743C164.954 1.13341 165.834 1.17138 166.687 1.32125C167.463 1.45314 168.164 1.67895 168.84 2.01067C169.5 2.34039 170.104 2.77203 170.632 3.28759C171.16 3.79916 171.6 4.39266 171.95 5.0541C172.281 5.69755 172.508 6.37898 172.639 7.12834C172.789 7.92167 172.836 8.73698 172.862 9.50234C172.866 9.85804 172.866 10.2417 172.866 10.6214C172.877 11.093 172.877 11.5426 172.877 11.9942V38.9814C172.877 39.439 172.877 39.8846 172.866 40.3343C172.866 40.7439 172.866 41.1176 172.862 41.5033C172.836 42.2447 172.789 43.058 172.641 43.8353C172.508 44.6067 172.281 45.2881 171.946 45.9355C171.598 46.589 171.158 47.1805 170.638 47.6781C170.106 48.2036 169.503 48.6332 168.835 48.965C168.166 49.2967 167.485 49.5165 166.687 49.6564C165.862 49.8023 165.007 49.8422 164.279 49.8622C163.902 49.8702 163.507 49.8762 163.123 49.8762L161.727 49.8782L10.8793 49.8802Z" fill="black"/>
<path d="M63.7126 34.4546H57.7515L56.293 38.3993H53.673L59.5109 23.6658H61.9875L67.9588 38.3993H65.2034L63.7126 34.4546ZM58.5009 32.4523H62.9511L61.3573 28.2319C61.1391 27.6484 60.9229 27.0049 60.7088 26.2995C60.5169 26.923 60.3088 27.5605 60.0826 28.2119L58.5009 32.4523Z" fill="white"/>
<path d="M69.1405 30.1145C69.1405 29.3012 69.1122 28.4059 69.0577 27.4308H71.4413C71.5302 27.8844 71.5908 28.35 71.6272 28.8236C72.613 27.7585 73.7442 27.2269 75.0189 27.2269C75.7582 27.2269 76.445 27.4108 77.0733 27.7805C77.7035 28.1501 78.2126 28.7337 78.6004 29.529C78.9883 30.3263 79.1822 31.3375 79.1822 32.5644C79.1822 33.8453 78.96 34.9404 78.5176 35.8496C78.0772 36.7589 77.4571 37.4463 76.6632 37.9139C75.8693 38.3815 74.9502 38.6153 73.9078 38.6153C73.1543 38.6153 72.411 38.4894 71.6777 38.2396V42.7738L69.1385 42.9876V30.1145H69.1405ZM75.8148 35.7217C76.3319 35.0343 76.5905 34.0292 76.5905 32.7063C76.5905 31.4793 76.3763 30.5901 75.9481 30.0366C75.5198 29.485 74.9502 29.2073 74.2371 29.2073C73.7442 29.2073 73.2877 29.3232 72.8695 29.553C72.4514 29.7828 72.0534 30.0925 71.6777 30.4782V36.3552C71.9302 36.4771 72.2251 36.573 72.5604 36.645C72.8958 36.7169 73.2291 36.7509 73.5584 36.7509C74.5462 36.7529 75.2976 36.4092 75.8148 35.7217Z" fill="white"/>
<path d="M80.8065 30.1145C80.8065 29.3012 80.7783 28.4059 80.7237 27.4308H83.1074C83.1963 27.8844 83.2569 28.35 83.2932 28.8236C84.279 27.7585 85.4103 27.2269 86.6849 27.2269C87.4242 27.2269 88.1111 27.4108 88.7393 27.7805C89.3696 28.1501 89.8786 28.7337 90.2665 29.529C90.6543 30.3263 90.8482 31.3375 90.8482 32.5644C90.8482 33.8453 90.626 34.9404 90.1836 35.8496C89.7433 36.7589 89.1231 37.4463 88.3292 37.9139C87.5354 38.3815 86.6162 38.6153 85.5739 38.6153C84.8204 38.6153 84.077 38.4894 83.3437 38.2396V42.7738L80.8045 42.9876V30.1145H80.8065ZM87.4828 35.7217C88 35.0343 88.2585 34.0292 88.2585 32.7063C88.2585 31.4793 88.0444 30.5901 87.6162 30.0366C87.1879 29.485 86.6182 29.2073 85.9052 29.2073C85.4123 29.2073 84.9557 29.3232 84.5376 29.553C84.1194 29.7828 83.7215 30.0925 83.3458 30.4782V36.3552C83.5983 36.4771 83.8932 36.573 84.2285 36.645C84.5638 36.7169 84.8972 36.7509 85.2264 36.7509C86.2142 36.7529 86.9657 36.4092 87.4828 35.7217Z" fill="white"/>
<path d="M95.6377 37.7042C94.5408 37.1047 93.6985 36.2454 93.1086 35.1263C92.5188 34.0073 92.2258 32.6864 92.2258 31.1617C92.2258 29.5071 92.5652 28.1023 93.2419 26.9473C93.9207 25.7922 94.8438 24.925 96.0135 24.3455C97.181 23.766 98.4921 23.4762 99.9445 23.4762C100.801 23.4762 101.617 23.5701 102.395 23.756C103.173 23.9418 103.898 24.1976 104.568 24.5233L103.92 26.4557C102.571 25.8182 101.282 25.5005 100.056 25.5005C99.0213 25.5005 98.1143 25.7183 97.3366 26.1559C96.5589 26.5936 95.9549 27.235 95.5226 28.0823C95.0923 28.9296 94.8741 29.9527 94.8741 31.1537C94.8741 32.2048 95.0398 33.136 95.3731 33.9493C95.7064 34.7626 96.2296 35.4061 96.9447 35.8817C97.6598 36.3573 98.5628 36.5931 99.6536 36.5931C100.146 36.5931 100.641 36.5531 101.134 36.4712C101.627 36.3893 102.09 36.2714 102.522 36.1155V33.136H99.0799V31.1837H104.991V37.3864C104.14 37.7801 103.247 38.0818 102.314 38.2917C101.379 38.5015 100.45 38.6074 99.5223 38.6074C98.0295 38.6034 96.7346 38.3036 95.6377 37.7042Z" fill="white"/>
<path d="M114.139 38.4013C114.05 37.9736 113.992 37.4901 113.965 36.9465C113.576 37.4081 113.067 37.7998 112.438 38.1215C111.812 38.4432 111.105 38.6051 110.315 38.6051C109.677 38.6051 109.097 38.4812 108.572 38.2334C108.049 37.9856 107.633 37.6139 107.324 37.1144C107.014 36.6168 106.861 36.0073 106.861 35.2899C106.861 34.2248 107.249 33.3775 108.023 32.7421C108.796 32.1086 110.087 31.7909 111.897 31.7909C112.576 31.7909 113.246 31.8388 113.911 31.9328V31.7189C113.911 30.7497 113.703 30.0663 113.283 29.6707C112.865 29.275 112.267 29.0752 111.485 29.0752C110.943 29.0752 110.364 29.1531 109.748 29.309C109.132 29.4648 108.59 29.6507 108.124 29.8685L107.724 28.038C108.176 27.8342 108.772 27.6484 109.513 27.4785C110.253 27.3087 111.034 27.2247 111.857 27.2247C112.816 27.2247 113.63 27.3686 114.303 27.6564C114.973 27.9441 115.499 28.4397 115.874 29.1411C116.252 29.8425 116.44 30.7877 116.44 31.9727V36.335C116.44 36.7886 116.466 37.4781 116.523 38.3993H114.139V38.4013ZM112.618 36.367C113.145 36.1172 113.578 35.8055 113.913 35.4318V33.3975C113.22 33.3236 112.656 33.2856 112.216 33.2856C111.168 33.2856 110.443 33.4535 110.043 33.7892C109.643 34.1249 109.441 34.5765 109.441 35.146C109.441 35.6876 109.586 36.0912 109.877 36.351C110.168 36.6128 110.564 36.7427 111.065 36.7427C111.574 36.7427 112.091 36.6168 112.618 36.367Z" fill="white"/>
<path d="M118.664 35.7677V22.8047L121.191 22.6008V35.3201C121.191 35.7877 121.272 36.1174 121.434 36.3112C121.595 36.5051 121.85 36.601 122.199 36.601C122.357 36.601 122.579 36.563 122.868 36.4891L123.167 38.2896C122.927 38.3855 122.634 38.4614 122.288 38.5174C121.943 38.5753 121.616 38.6033 121.307 38.6033C119.543 38.6033 118.664 37.6581 118.664 35.7677Z" fill="white"/>
<path d="M124.985 35.7677V22.8047L127.512 22.6008V35.3201C127.512 35.7877 127.593 36.1174 127.754 36.3112C127.916 36.5051 128.17 36.601 128.52 36.601C128.678 36.601 128.9 36.563 129.189 36.4891L129.488 38.2896C129.247 38.3855 128.954 38.4614 128.609 38.5174C128.263 38.5753 127.936 38.6033 127.627 38.6033C125.866 38.6033 124.985 37.6581 124.985 35.7677Z" fill="white"/>
<path d="M140.012 33.2358H132.756C132.873 35.5339 133.98 36.6829 136.077 36.6829C136.598 36.6829 137.13 36.621 137.675 36.4951C138.22 36.3692 138.742 36.2013 139.243 35.9915L139.798 37.7101C138.558 38.3056 137.164 38.6053 135.615 38.6053C134.437 38.6053 133.443 38.3855 132.633 37.9439C131.825 37.5022 131.217 36.8688 130.809 36.0415C130.401 35.2142 130.197 34.219 130.197 33.052C130.197 31.839 130.413 30.7959 130.845 29.9206C131.278 29.0454 131.877 28.378 132.649 27.9183C133.419 27.4567 134.31 27.2269 135.316 27.2269C136.364 27.2269 137.241 27.4687 137.942 27.9543C138.643 28.4399 139.164 29.0854 139.503 29.8907C139.843 30.698 140.012 31.5892 140.012 32.5644V33.2358ZM137.536 31.6392C137.489 30.7639 137.265 30.1085 136.867 29.6709C136.469 29.2332 135.938 29.0154 135.273 29.0154C134.629 29.0154 134.094 29.2352 133.665 29.6769C133.237 30.1185 132.958 30.7719 132.827 31.6392H137.536Z" fill="white"/>
<path d="M142.058 30.1842C142.058 29.5807 142.03 28.6615 141.976 27.4286H144.349C144.391 27.7343 144.43 28.098 144.468 28.5216C144.505 28.9453 144.531 29.289 144.545 29.5528C144.84 29.0712 145.129 28.6675 145.414 28.3378C145.698 28.0081 146.032 27.7403 146.412 27.5345C146.791 27.3266 147.226 27.2247 147.71 27.2247C148.1 27.2247 148.438 27.2647 148.718 27.3466L148.399 29.5228C148.153 29.4489 147.878 29.4109 147.577 29.4109C146.981 29.4109 146.46 29.5628 146.016 29.8625C145.571 30.1622 145.094 30.6598 144.587 31.3512V38.3973H142.058V30.1842Z" fill="white"/>
<path d="M150.242 42.8898C149.872 42.8259 149.567 42.7519 149.327 42.672L149.789 40.8416C149.961 40.8895 150.177 40.9335 150.438 40.9795C150.698 41.0234 150.945 41.0454 151.177 41.0454C152.3 41.0454 153.143 40.33 153.706 38.8992L153.87 38.4936L149.779 27.4309H152.502L154.559 33.6137C154.894 34.6708 155.11 35.4821 155.207 36.0436C155.399 35.2503 155.625 34.457 155.886 33.6636L157.973 27.4309H160.532L156.452 38.5435C156.068 39.5946 155.654 40.4419 155.207 41.0854C154.761 41.7288 154.236 42.2064 153.63 42.5181C153.021 42.8299 152.29 42.9858 151.436 42.9858C151.007 42.9858 150.612 42.9538 150.242 42.8898Z" fill="white"/>
<path fill-rule="evenodd" clip-rule="evenodd" d="M34.8155 9.27454H20.4792C13.7261 9.27454 11.2556 11.7185 11.2556 18.3988V32.5808C11.2556 39.2612 13.7261 41.7051 20.4792 41.7051H34.8115C41.5645 41.7051 44.0391 39.2612 44.0391 32.5808V18.3988C44.0391 11.7185 41.5686 9.27454 34.8155 9.27454Z" fill="#C8102E"/>
<path d="M17.7482 25.4927H18.6169V29.7331H17.7482V28.0106H15.7847V29.7331H14.9141V25.4927H15.7847V27.2033H17.7482V25.4927ZM22.6469 27.9207C22.6469 28.6101 22.3014 28.9778 21.6732 28.9778C21.0409 28.9778 20.6935 28.5981 20.6935 27.8907V25.4947H19.8228V27.9187C19.8228 29.1117 20.4935 29.7951 21.6611 29.7951C22.8408 29.7951 23.5155 29.0977 23.5155 27.8827V25.4907H22.6469V27.9207ZM32.6966 28.4083L31.723 25.4927H31.0139L30.0403 28.4083L29.0929 25.4947H28.1677L29.6625 29.7331H30.3817L31.3573 26.9495L32.331 29.7331H33.0562L34.547 25.4947H33.6461L32.6966 28.4083ZM36.1065 27.9087H37.6882V27.1373H36.1065V26.2701H38.4033V25.4967H35.25V29.7311H38.4861V28.9578H36.1065V27.9087ZM39.5224 29.7271H40.3809V25.4927H39.5224V29.7271ZM25.2346 28.8479L24.8447 29.7311H23.9559L25.8446 25.4927H26.6122L28.4929 29.7311H27.5819L27.196 28.8479H25.2346ZM25.5578 28.0845H26.8728L26.2143 26.5678L25.5578 28.0845Z" fill="white"/>
<path d="M27.6485 20.0952C24.6386 20.0952 22.1923 17.6733 22.1923 14.6958H22.964C22.964 17.2516 25.0668 19.3319 27.6505 19.3319C30.2341 19.3319 32.337 17.2516 32.337 14.6958H33.1087C33.1046 17.6733 30.6563 20.0952 27.6485 20.0952Z" fill="white"/>
<path d="M55.0705 18.0707C54.5332 17.7669 54.1211 17.3393 53.8383 16.7877C53.5555 16.2362 53.412 15.5968 53.412 14.8674C53.412 14.102 53.5636 13.4306 53.8666 12.8571C54.1696 12.2836 54.6059 11.8399 55.1756 11.5282C55.7452 11.2145 56.4179 11.0586 57.1916 11.0586C57.9329 11.0586 58.5692 11.2105 59.1046 11.5122C59.6399 11.816 60.0459 12.2416 60.3267 12.7891C60.6075 13.3387 60.7469 13.9741 60.7469 14.6955C60.7469 15.4749 60.5933 16.1523 60.2883 16.7278C59.9813 17.3033 59.547 17.7469 58.9793 18.0567C58.4137 18.3684 57.7471 18.5243 56.9835 18.5243C56.2462 18.5283 55.6099 18.3764 55.0705 18.0707ZM58.3592 17.1814C58.7147 16.9456 58.9793 16.6219 59.1551 16.2082C59.3308 15.7946 59.4197 15.323 59.4197 14.7914C59.4197 14.2699 59.3409 13.8043 59.1854 13.3966C59.0298 12.989 58.7814 12.6632 58.44 12.4214C58.0986 12.1796 57.6582 12.0577 57.1209 12.0577C56.6078 12.0577 56.1714 12.1816 55.8119 12.4274C55.4543 12.6732 55.1836 13.0029 55.0059 13.4166C54.8261 13.8302 54.7372 14.2859 54.7372 14.7834C54.7372 15.309 54.822 15.7786 54.9917 16.1943C55.1614 16.6099 55.42 16.9376 55.7674 17.1774C56.1149 17.4192 56.5472 17.5391 57.0603 17.5391C57.5713 17.5351 58.0036 17.4172 58.3592 17.1814Z" fill="white"/>
<path d="M63.3207 12.2098H61.0421L61.1532 11.1606H66.8699L66.7528 12.2098H64.5873V18.4265H63.3187V12.2098H63.3207Z" fill="white"/>
<path d="M73.6975 18.4286H72.2673L70.0816 15.2273H69.215V18.4286H67.9464V11.1607H69.215V14.1622H69.8796L71.4007 11.984C71.6229 11.6603 71.8471 11.4245 72.0734 11.2786C72.2976 11.1327 72.5824 11.0608 72.9238 11.0608C73.2086 11.0608 73.4611 11.1068 73.6854 11.2007L73.4207 12.1798C73.2814 12.1239 73.1501 12.0939 73.0248 12.0939C72.8753 12.0939 72.7481 12.1299 72.641 12.2038C72.5339 12.2778 72.4228 12.3957 72.3097 12.5595L70.9664 14.4659L73.6975 18.4286Z" fill="white"/>
<path d="M74.6672 11.1606H76.6448C77.574 11.1606 78.2871 11.3485 78.78 11.7222C79.2729 12.0959 79.5213 12.6394 79.5213 13.3488C79.5213 13.8304 79.4102 14.252 79.19 14.6117C78.9678 14.9714 78.6608 15.2472 78.2649 15.439C77.8689 15.6309 77.4144 15.7268 76.8993 15.7268C76.6185 15.7268 76.2973 15.6928 75.9358 15.6269V18.4265H74.6672V11.1606ZM77.8487 14.4059C78.1194 14.1641 78.2548 13.8204 78.2548 13.3788C78.2548 12.9311 78.1174 12.6074 77.8407 12.4096C77.5659 12.2118 77.1599 12.1138 76.6266 12.1138H75.9358V14.6937C76.2529 14.7436 76.4973 14.7696 76.667 14.7696C77.1841 14.7696 77.5781 14.6477 77.8487 14.4059Z" fill="white"/>
<path d="M81.9617 18.0707C81.4243 17.7669 81.0122 17.3393 80.7294 16.7877C80.4466 16.2362 80.3032 15.5968 80.3032 14.8674C80.3032 14.102 80.4547 13.4306 80.7577 12.8571C81.0607 12.2836 81.497 11.8399 82.0667 11.5282C82.6364 11.2145 83.309 11.0586 84.0827 11.0586C84.8241 11.0586 85.4604 11.2105 85.9957 11.5122C86.531 11.816 86.937 12.2416 87.2178 12.7891C87.4986 13.3387 87.638 13.9741 87.638 14.6955C87.638 15.4749 87.4845 16.1523 87.1794 16.7278C86.8744 17.3033 86.4381 17.7469 85.8704 18.0567C85.3048 18.3684 84.6382 18.5243 83.8746 18.5243C83.1373 18.5283 82.499 18.3764 81.9617 18.0707ZM85.2483 17.1814C85.6038 16.9456 85.8684 16.6219 86.0442 16.2082C86.2199 15.7946 86.3088 15.323 86.3088 14.7914C86.3088 14.2699 86.23 13.8043 86.0745 13.3966C85.9189 12.989 85.6705 12.6632 85.3291 12.4214C84.9877 12.1796 84.5473 12.0577 84.01 12.0577C83.4969 12.0577 83.0606 12.1816 82.701 12.4274C82.3434 12.6732 82.0728 13.0029 81.895 13.4166C81.7152 13.8302 81.6263 14.2859 81.6263 14.7834C81.6263 15.309 81.7112 15.7786 81.8808 16.1943C82.0505 16.6099 82.3091 16.9376 82.6565 17.1774C83.004 17.4192 83.4363 17.5391 83.9494 17.5391C84.4605 17.5351 84.8948 17.4172 85.2483 17.1814Z" fill="white"/>
<path d="M94.096 18.4284V14.4338C94.096 13.9322 94.1141 13.3567 94.1525 12.7073L90.4639 18.4284H89.0539V11.1606H90.2316V15.3111C90.2316 15.7627 90.2155 16.2563 90.1852 16.7918L93.8172 11.1606H95.2737V18.4264H94.096V18.4284ZM91.2336 10.5291C90.9669 10.3892 90.7629 10.2074 90.6215 9.98757C90.4821 9.76775 90.3932 9.52995 90.3548 9.27417H91.2679C91.3669 9.80972 91.684 10.0775 92.2214 10.0775C92.7587 10.0775 93.0779 9.80972 93.1809 9.27417H94.1C94.0636 9.52796 93.9748 9.76575 93.8334 9.98757C93.694 10.2074 93.4879 10.3892 93.2193 10.5291C92.9506 10.669 92.6173 10.7389 92.2234 10.7389C91.8315 10.7389 91.5022 10.669 91.2336 10.5291Z" fill="white"/>
<path d="M98.625 12.2098H96.3464L96.4575 11.1606H102.174L102.057 12.2098H99.8916V18.4265H98.623V12.2098H98.625Z" fill="white"/>
<path d="M103.251 11.1606H107.578L107.457 12.1938H104.52V14.1961H107.289V15.1653H104.52V17.3834H107.614L107.507 18.4265H103.251V11.1606Z" fill="white"/>
<path d="M116.458 14.8375C116.721 14.9974 116.927 15.2052 117.076 15.465C117.226 15.7248 117.302 16.0285 117.302 16.3762C117.302 16.7819 117.199 17.1376 116.995 17.4473C116.791 17.7571 116.492 17.9969 116.098 18.1707C115.705 18.3426 115.232 18.4285 114.68 18.4285H112.287V11.1606H114.579C115.357 11.1606 115.941 11.3085 116.329 11.6063C116.719 11.904 116.913 12.3117 116.913 12.8312C116.913 13.2629 116.787 13.6226 116.539 13.9123C116.29 14.2021 115.965 14.4059 115.563 14.5218C115.898 14.5738 116.195 14.6777 116.458 14.8375ZM113.525 14.1321H114.317C114.581 14.1321 114.814 14.0802 115.014 13.9763C115.216 13.8724 115.369 13.7325 115.478 13.5566C115.587 13.3808 115.64 13.1869 115.64 12.9771C115.64 12.6794 115.531 12.4575 115.313 12.3097C115.094 12.1618 114.779 12.0899 114.367 12.0899H113.525V14.1321ZM115.652 17.1855C115.911 16.9757 116.04 16.682 116.04 16.3003C116.04 15.8946 115.896 15.5869 115.612 15.3771C115.327 15.1673 114.915 15.0613 114.377 15.0613H113.525V17.4993H114.478C115.002 17.4993 115.393 17.3954 115.652 17.1855Z" fill="white"/>
</g>
<defs>
<clipPath id="clip0_3_1457">
<rect width="174" height="50.9809" fill="white"/>
</clipPath>
</defs>
</svg>
