<svg width="36" height="36" viewBox="0 0 36 36" fill="none" xmlns="http://www.w3.org/2000/svg">
<path d="M0 18C0 10.5005 0 6.7508 1.90983 4.12215C2.52663 3.2732 3.2732 2.52663 4.12215 1.90983C6.7508 0 10.5005 0 18 0C25.4995 0 29.2492 0 31.8779 1.90983C32.7268 2.52663 33.4734 3.2732 34.0902 4.12215C36 6.7508 36 10.5005 36 18C36 25.4995 36 29.2492 34.0902 31.8779C33.4734 32.7268 32.7268 33.4734 31.8779 34.0902C29.2492 36 25.4995 36 18 36C10.5005 36 6.7508 36 4.12215 34.0902C3.2732 33.4734 2.52663 32.7268 1.90983 31.8779C0 29.2492 0 25.4995 0 18Z" fill="#141414"/>
<path fill-rule="evenodd" clip-rule="evenodd" d="M19.7017 13.2771C19.9636 13.2771 21.3107 13.2771 21.3107 13.2771V10.809L19.0945 10.8C16.6331 10.8 16.0738 12.6425 16.0738 13.8181V15.4635H14.6509V18.0051H16.0738C16.0738 21.2692 16.0738 25.2001 16.0738 25.2001H19.0666C19.0666 25.2001 19.0666 21.2313 19.0666 18.0051H21.0867L21.3486 15.4635H19.0666V13.9695C19.0666 13.4084 19.4399 13.2771 19.7017 13.2771Z" fill="white"/>
</svg>
