<svg width="36" height="36" viewBox="0 0 36 36" fill="none" xmlns="http://www.w3.org/2000/svg">
<path d="M0 18C0 10.5005 0 6.7508 1.90983 4.12215C2.52663 3.2732 3.2732 2.52663 4.12215 1.90983C6.7508 0 10.5005 0 18 0V0C25.4995 0 29.2492 0 31.8779 1.90983C32.7268 2.52663 33.4734 3.2732 34.0902 4.12215C36 6.7508 36 10.5005 36 18V18C36 25.4995 36 29.2492 34.0902 31.8779C33.4734 32.7268 32.7268 33.4734 31.8779 34.0902C29.2492 36 25.4995 36 18 36V36C10.5005 36 6.7508 36 4.12215 34.0902C3.2732 33.4734 2.52663 32.7268 1.90983 31.8779C0 29.2492 0 25.4995 0 18V18Z" fill="#141414"/>
<path d="M18.7109 24C12.7512 24 9.13737 19.8684 9 13H12.0221C12.1172 18.0403 14.4102 20.1854 16.1748 20.6186V13H19.0701V17.3535C20.7714 17.1633 22.5466 15.1873 23.1383 13H25.9808C25.5264 15.684 23.5927 17.6705 22.2296 18.4842C23.5927 19.1393 25.8011 20.8722 26.6465 24H23.5187C22.8636 21.9078 21.2363 20.2911 19.0701 20.0692V24H18.7109Z" fill="white"/>
</svg>
