<svg width="174" height="51" viewBox="0 0 174 51" fill="none" xmlns="http://www.w3.org/2000/svg">
<g clip-path="url(#clip0_3_1397)">
<path d="M160.142 0H13.8578C13.3343 0 12.8108 0 12.2728 0C11.822 0 11.3858 0.0127452 10.935 0.0127452C9.96072 0.0254904 8.98646 0.101962 8.02674 0.242159C7.06702 0.382357 6.13639 0.650006 5.26391 1.04511C4.39144 1.42746 3.59168 1.93727 2.90824 2.54904C2.21026 3.14807 1.62861 3.84906 1.19238 4.61377C0.756142 5.37848 0.450777 6.19418 0.290824 7.03536C0.130871 7.87655 0.0436236 8.73048 0.0290824 9.58441C0.0145412 9.97951 0 10.3746 0 10.757V40.2112C0 40.6063 0.0145412 40.9886 0.0290824 41.3837C0.0436236 42.2377 0.130871 43.0916 0.290824 43.9328C0.450777 44.774 0.756142 45.6024 1.19238 46.3544C1.62861 47.1191 2.21026 47.8073 2.90824 48.4064C3.59168 49.0181 4.39144 49.5152 5.26391 49.9103C6.13639 50.2926 7.06702 50.573 8.02674 50.7132C8.98646 50.8534 9.96072 50.9299 10.935 50.9427C11.3858 50.9681 11.822 50.9809 12.2728 50.9809C12.8108 50.9809 13.3343 50.9809 13.8578 50.9809H160.142C160.666 50.9809 161.189 50.9809 161.713 50.9809C162.149 50.9809 162.614 50.9809 163.05 50.9681C164.025 50.9554 164.999 50.8789 165.959 50.7387C166.918 50.5985 167.864 50.3181 168.736 49.9358C169.609 49.5534 170.394 49.0436 171.092 48.4318C171.79 47.8328 172.357 47.1318 172.808 46.3799C173.244 45.6152 173.549 44.7995 173.709 43.9583C173.869 43.1171 173.956 42.2632 173.985 41.4092C173.985 41.0141 173.985 40.6318 173.985 40.2367C174 39.7778 174 39.319 174 38.8474V12.1589C174 11.6874 174 11.2285 173.985 10.7697C173.985 10.3746 173.985 9.99226 173.985 9.59715C173.971 8.74322 173.884 7.88929 173.709 7.04811C173.549 6.20692 173.244 5.39123 172.808 4.62652C171.906 3.09709 170.481 1.84806 168.736 1.05785C167.864 0.675497 166.933 0.407847 165.959 0.254904C164.999 0.114707 164.025 0.0382357 163.05 0.0254904C162.614 0.0254904 162.149 0.0127452 161.713 0.0127452C161.204 0 160.666 0 160.142 0Z" fill="#A6A6A6"/>
<path d="M12.2726 49.8721C11.8364 49.8721 11.4002 49.8721 10.9639 49.8594C10.0478 49.8466 9.14628 49.7829 8.24472 49.6555C7.40133 49.528 6.60157 49.2986 5.83088 48.9545C5.07474 48.6231 4.3913 48.177 3.79511 47.6545C3.19893 47.1319 2.68998 46.5329 2.31191 45.8701C1.93384 45.2074 1.65756 44.4936 1.52669 43.7544C1.38128 42.9642 1.29403 42.1613 1.27949 41.3583C1.26495 41.0907 1.26495 40.1985 1.26495 40.1985V10.757C1.26495 10.757 1.27949 9.87762 1.27949 9.62272C1.30857 8.81977 1.38128 8.02956 1.52669 7.23936C1.6721 6.50014 1.93384 5.78641 2.32645 5.12365C2.70452 4.4609 3.19893 3.86188 3.80966 3.33932C4.3913 2.81677 5.08928 2.37069 5.83088 2.03931C6.58702 1.70793 7.40133 1.46578 8.23018 1.35107C9.13173 1.22362 10.0478 1.14714 10.9639 1.14714L12.2726 1.1344H161.713L163.036 1.14714C163.937 1.15989 164.839 1.22362 165.74 1.35107C166.584 1.47852 167.398 1.70793 168.169 2.05206C169.681 2.72755 170.903 3.8109 171.688 5.1364C172.066 5.79915 172.328 6.51288 172.473 7.23936C172.618 8.02956 172.706 8.83251 172.72 9.64821C172.72 10.0051 172.72 10.4002 172.72 10.7825C172.735 11.2669 172.735 11.7129 172.735 12.1718V38.8475C172.735 39.3063 172.735 39.7652 172.72 40.224C172.72 40.6446 172.72 41.0142 172.72 41.4093C172.706 42.1995 172.618 42.9897 172.473 43.7672C172.342 44.5064 172.066 45.2201 171.688 45.8956C171.31 46.5456 170.801 47.1447 170.205 47.6672C169.608 48.1898 168.925 48.6358 168.169 48.9672C167.398 49.3113 166.584 49.5408 165.74 49.6682C164.839 49.7957 163.937 49.8721 163.021 49.8721C162.6 49.8849 162.149 49.8849 161.713 49.8849H160.142L12.2726 49.8721Z" fill="black"/>
<path d="M31.889 25.8728C31.9148 23.7061 33.0606 21.7179 34.9273 20.5835C33.7429 18.9139 31.8375 17.8943 29.7906 17.8306C27.6277 17.6012 25.5293 19.1051 24.435 19.1051C23.3149 19.1051 21.6156 17.8433 19.7874 17.8816C17.38 17.958 15.2043 19.2835 14.0327 21.361C11.548 25.6306 13.4019 31.9013 15.7836 35.3553C16.9809 37.0504 18.3713 38.9367 20.1994 38.8602C21.9889 38.7837 22.6583 37.7386 24.8083 37.7386C26.9454 37.7386 27.5634 38.8602 29.4301 38.822C31.3483 38.7965 32.5585 37.1268 33.7043 35.419C34.5669 34.2209 35.2234 32.8827 35.6611 31.4807C33.3696 30.5248 31.889 28.3199 31.889 25.8728Z" fill="white"/>
<path d="M28.3745 15.5619C29.4173 14.3256 29.9322 12.7197 29.8035 11.1138C28.2071 11.2795 26.7266 12.0314 25.6709 13.2295C24.6281 14.402 24.1003 15.9442 24.2033 17.5119C25.8254 17.5246 27.3574 16.8109 28.3745 15.5619Z" fill="white"/>
<path d="M54.4572 34.5904H48.3677L46.9001 38.8728H44.3253L50.0929 23.0432H52.7707L58.5383 38.8728H55.9119L54.4572 34.5904ZM48.9986 32.6149H53.8264L51.4446 25.6687H51.3803L48.9986 32.6149Z" fill="white"/>
<path d="M71.0132 33.0992C71.0132 36.6806 69.0692 38.9875 66.1468 38.9875C64.6406 39.064 63.2115 38.2865 62.4777 36.9738H62.4262V42.6836H60.0317V27.3257H62.349V29.2502H62.3876C63.1472 27.9502 64.5762 27.16 66.0953 27.2109C69.0692 27.2109 71.0132 29.5178 71.0132 33.0992ZM68.5543 33.0992C68.5543 30.7669 67.3312 29.2247 65.4774 29.2247C63.6493 29.2247 62.4134 30.7924 62.4134 33.0992C62.4134 35.4189 63.6493 36.9865 65.4774 36.9865C67.3312 36.9865 68.5543 35.4571 68.5543 33.0992Z" fill="white"/>
<path d="M83.8356 33.0992C83.8356 36.6806 81.8916 38.9875 78.9692 38.9875C77.463 39.064 76.0339 38.2865 75.3001 36.9738H75.2486V42.6836H72.8669V27.3257H75.1842V29.2502H75.2229C75.9824 27.9502 77.4115 27.16 78.9306 27.2109C81.8916 27.2109 83.8356 29.5178 83.8356 33.0992ZM81.3767 33.0992C81.3767 30.7669 80.1536 29.2247 78.2998 29.2247C76.4716 29.2247 75.2357 30.7924 75.2357 33.0992C75.2357 35.4189 76.4716 36.9865 78.2998 36.9865C80.1665 36.9865 81.3767 35.4571 81.3767 33.0992Z" fill="white"/>
<path d="M92.3198 34.463C92.5 36.0307 94.032 37.063 96.1434 37.063C98.1646 37.063 99.6065 36.0307 99.6065 34.6159C99.6065 33.3924 98.7311 32.6532 96.6583 32.1434L94.5856 31.6463C91.6503 30.9453 90.2857 29.5816 90.2857 27.3767C90.2857 24.6492 92.6931 22.7756 96.1048 22.7756C99.4778 22.7756 101.795 24.6492 101.872 27.3767H99.452C99.3104 25.7963 97.9844 24.8404 96.0661 24.8404C94.1479 24.8404 92.8219 25.809 92.8219 27.211C92.8219 28.3326 93.6587 28.9826 95.7185 29.4924L97.4823 29.9257C100.765 30.6904 102.13 32.0032 102.13 34.3101C102.13 37.2669 99.7481 39.1278 95.9631 39.1278C92.4228 39.1278 90.0282 37.3179 89.8737 34.4503L92.3198 34.463Z" fill="white"/>
<path d="M107.305 24.5983V27.3257H109.519V29.1993H107.305V35.5592C107.305 36.5533 107.743 37.0121 108.721 37.0121C108.979 37.0121 109.249 36.9866 109.507 36.9611V38.8219C109.069 38.8984 108.618 38.9366 108.18 38.9366C105.825 38.9366 104.898 38.0572 104.898 35.8268V29.212H103.198V27.3385H104.898V24.5983H107.305Z" fill="white"/>
<path d="M110.807 33.0993C110.807 29.4669 112.97 27.1855 116.33 27.1855C119.703 27.1855 121.853 29.4669 121.853 33.0993C121.853 36.7445 119.716 39.0131 116.33 39.0131C112.944 39.0131 110.807 36.7445 110.807 33.0993ZM119.42 33.0993C119.42 30.614 118.261 29.1356 116.33 29.1356C114.399 29.1356 113.24 30.614 113.24 33.0993C113.24 35.5974 114.386 37.0631 116.33 37.0631C118.274 37.0631 119.42 35.5974 119.42 33.0993Z" fill="white"/>
<path d="M123.835 27.3257H126.114V29.2885H126.166C126.487 28.0267 127.659 27.16 128.972 27.1982C129.243 27.1982 129.526 27.2237 129.796 27.2875V29.5051C129.449 29.4032 129.088 29.3522 128.728 29.3649C127.402 29.3139 126.269 30.3336 126.217 31.6591C126.217 31.7865 126.217 31.9012 126.23 32.0287V38.8729H123.835V27.3257Z" fill="white"/>
<path d="M140.816 35.4827C140.494 37.5729 138.435 39.0131 135.795 39.0131C132.41 39.0131 130.298 36.77 130.298 33.1503C130.298 29.5307 132.41 27.1855 135.692 27.1855C138.911 27.1855 140.945 29.3777 140.945 32.8827V33.6984H132.719V33.8386C132.577 35.4954 133.8 36.9484 135.474 37.1013C135.602 37.1141 135.731 37.1141 135.847 37.1141C137.006 37.216 138.1 36.566 138.538 35.4954L140.816 35.4827ZM132.731 32.0287H138.563C138.654 30.4993 137.469 29.1865 135.924 29.1101C135.847 29.1101 135.783 29.1101 135.705 29.1101C134.07 29.0973 132.744 30.3973 132.731 32.016V32.0287Z" fill="white"/>
<path d="M47.2993 14.3384H48.3292C49.0373 14.4276 49.681 13.9305 49.7711 13.2295C49.7711 13.1913 49.784 13.1658 49.784 13.1276C49.784 12.4266 49.2562 11.9678 48.3421 11.9678C47.5954 11.8658 46.9002 12.3756 46.7972 13.1276C46.7972 13.1403 46.7972 13.1531 46.7972 13.1658H45.6643C45.7415 11.8531 46.8873 10.8462 48.2134 10.9227C48.2648 10.9227 48.3292 10.9354 48.3807 10.9354C49.887 10.9354 50.9555 11.7766 50.9555 12.9746C50.9684 13.8031 50.3762 14.5296 49.5651 14.708V14.7972C50.5436 14.8354 51.316 15.6639 51.2774 16.6325C51.1358 18.0345 49.8741 19.0414 48.458 18.9012C48.4451 18.9012 48.4193 18.9012 48.4065 18.9012C47.0032 19.0924 45.7158 18.1237 45.5355 16.7345C45.5355 16.709 45.5227 16.6708 45.5227 16.6453H46.6685C46.7328 17.3717 47.4152 17.8433 48.4065 17.8433C49.3978 17.8433 50.0543 17.3208 50.0543 16.5688C50.0543 15.8168 49.4364 15.3453 48.3678 15.3453H47.3122V14.3384H47.2993Z" fill="white"/>
<path d="M52.5645 17.1039C52.5645 16.0716 53.337 15.4725 54.7145 15.3961L56.2851 15.3068V14.8098C56.2851 14.198 55.886 13.8666 55.1007 13.8666C54.457 13.8666 54.0193 14.0961 53.8906 14.5039H52.7834C52.8993 13.5225 53.8391 12.8853 55.1522 12.8853C56.607 12.8853 57.4309 13.599 57.4309 14.8098V18.7353H56.3238V17.9324H56.2336C55.8603 18.5186 55.1908 18.8628 54.4956 18.8373C53.5301 18.9392 52.6675 18.2383 52.5774 17.2951C52.5645 17.2186 52.5645 17.1677 52.5645 17.1039ZM56.2851 16.6196V16.1353L54.869 16.2245C54.0708 16.2755 53.7103 16.5431 53.7103 17.0529C53.7103 17.5755 54.1609 17.8686 54.7789 17.8686C55.5256 17.9451 56.195 17.3971 56.2723 16.6578C56.2851 16.6451 56.2851 16.6324 56.2851 16.6196Z" fill="white"/>
<path d="M60.4694 13.9433V18.7228H59.3236V12.9874H63.1343V13.9433H60.4694Z" fill="white"/>
<path d="M70.0734 15.8551C70.0734 17.6776 69.1465 18.8247 67.6788 18.8247C66.945 18.8757 66.2498 18.4933 65.8893 17.8561H65.7992V20.6345H64.6534V12.9874H65.7606V13.9305H65.8507C66.2112 13.2678 66.9193 12.8727 67.666 12.8854C69.1465 12.8982 70.0734 14.0325 70.0734 15.8551ZM68.9019 15.8551C68.9019 14.6443 68.3225 13.905 67.357 13.905C66.3914 13.905 65.7863 14.657 65.7863 15.8551C65.7863 17.0531 66.3914 17.8051 67.3441 17.8051C68.3225 17.8051 68.9019 17.0786 68.9019 15.8551Z" fill="white"/>
<path d="M71.5926 20.7875V19.8061C71.7213 19.8189 71.8372 19.8316 71.9659 19.8316C72.468 19.8698 72.9186 19.5257 73.0087 19.0287L73.0988 18.7483L71.0004 12.9874H72.2491L73.7039 17.5502H73.794L75.2359 12.9874H76.4461L74.2832 18.9649C73.794 20.3669 73.2404 20.813 72.056 20.813C71.9788 20.813 71.7084 20.8002 71.5926 20.7875Z" fill="white"/>
<path d="M77.3473 17.1043H78.4802C78.5961 17.6141 79.0724 17.869 79.7418 17.869C80.5014 17.869 80.9778 17.5376 80.9778 17.015C80.9778 16.467 80.5529 16.1994 79.7418 16.1994H78.8793V15.3199H79.729C80.4242 15.3199 80.7718 15.0523 80.7718 14.5807C80.7718 14.1601 80.437 13.8415 79.729 13.8415C79.0853 13.8415 78.6218 14.1091 78.5446 14.568H77.4374C77.6048 13.4846 78.6218 12.7326 79.7161 12.8856C81.0936 12.8856 81.8789 13.4974 81.8789 14.466C81.8918 15.0268 81.5056 15.5111 80.9649 15.6386V15.7278C81.6215 15.817 82.1107 16.365 82.0978 17.015C82.0978 18.1111 81.158 18.8249 79.729 18.8249C78.4802 18.8376 77.4503 18.2641 77.3473 17.1043Z" fill="white"/>
<path d="M83.7713 18.7355V13.0001H84.9042V16.9511H84.9943L87.6722 13.0001H88.8051V18.7355H87.6722V14.7717H87.582L84.9042 18.7355H83.7713Z" fill="white"/>
<path d="M95.0491 13.9433H93.221V18.7227H92.0752V13.9433H90.2471V13.0001H95.0491V13.9433Z" fill="white"/>
<path d="M101.203 17.1804C100.881 18.2637 99.8252 18.9647 98.6923 18.8373C97.2375 18.8755 96.0274 17.7412 95.9887 16.301C95.9887 16.1608 95.9887 16.0206 96.0145 15.8804C95.8214 14.4274 96.8513 13.1019 98.3061 12.9107C98.4348 12.898 98.5636 12.8853 98.6794 12.8853C100.289 12.8853 101.267 13.9813 101.267 15.7784V16.1735H97.1732V16.2372C97.0959 17.0657 97.7267 17.8049 98.5636 17.8814C98.6151 17.8814 98.6666 17.8814 98.7181 17.8814C99.2716 17.9451 99.8252 17.6775 100.096 17.1804H101.203ZM97.186 15.3323H100.108C100.16 14.5676 99.5935 13.9049 98.821 13.8539C98.7824 13.8539 98.7309 13.8539 98.6923 13.8539C97.8684 13.8411 97.1989 14.4912 97.186 15.2941C97.186 15.3068 97.186 15.3196 97.186 15.3323Z" fill="white"/>
<path d="M106.057 12.9874H108.67C109.803 12.9874 110.472 13.561 110.472 14.4531C110.472 15.0394 110.073 15.5365 109.494 15.6639V15.7531C110.202 15.7914 110.743 16.3777 110.73 17.0786C110.73 18.0855 109.97 18.7355 108.696 18.7355H106.057V12.9874ZM107.189 13.8668V15.358H108.322C109.018 15.358 109.339 15.0904 109.339 14.6061C109.339 14.16 109.056 13.8668 108.438 13.8668H107.189ZM107.189 16.1865V17.8688H108.541C109.224 17.8688 109.584 17.5757 109.584 17.0277C109.584 16.4541 109.172 16.1865 108.4 16.1865H107.189Z" fill="white"/>
</g>
<defs>
<clipPath id="clip0_3_1397">
<rect width="174" height="50.9809" fill="white"/>
</clipPath>
</defs>
</svg>
