<svg width="90" height="30" viewBox="0 0 90 30" fill="none" xmlns="http://www.w3.org/2000/svg">
<path fill-rule="evenodd" clip-rule="evenodd" d="M15 0C6.72893 0 0 6.72896 0 14.9999C0 23.271 6.72893 30 15 30C18.0408 30 20.972 29.084 23.4491 27.3911L21.4831 25.1054C19.5609 26.3418 17.3207 27.0093 15 27.0093C8.37797 27.0093 2.99071 21.622 2.99071 14.9999C2.99071 8.3779 8.37797 2.99063 15 2.99063C21.622 2.99063 27.0093 8.3779 27.0093 14.9999C27.0093 15.872 26.9114 16.7391 26.7264 17.5825C26.3414 19.1612 25.2407 19.6495 24.395 19.5834C23.5611 19.5162 22.5704 18.9217 22.5639 17.4534V14.9999C22.5639 10.8293 19.1707 7.43601 15 7.43601C10.8294 7.43601 7.43599 10.8293 7.43599 14.9999C7.43599 19.1708 10.8294 22.564 15 22.564C17.1137 22.564 19.0265 21.6914 20.4003 20.289C21.2093 21.581 22.5489 22.4354 24.1553 22.5645C24.2893 22.5752 24.423 22.5805 24.5563 22.5805C25.6448 22.5805 26.7062 22.225 27.5819 21.5601C28.4857 20.874 29.1437 19.8987 29.5126 18.7189C29.5715 18.5305 29.6796 18.0938 29.6809 18.088C29.9268 17.0231 30 16.0405 30 14.9999C30 6.72896 23.271 0 15 0ZM10.4267 14.9999C10.4267 12.4783 12.4783 10.4267 15 10.4267C17.5217 10.4267 19.5732 12.4783 19.5732 14.9999C19.5732 17.5217 17.5217 19.5733 15 19.5733C12.4783 19.5733 10.4267 17.5217 10.4267 14.9999Z" fill="#FF9E00"/>
<path fill-rule="evenodd" clip-rule="evenodd" d="M77.3712 22.4936H74.538V21.4582C73.4434 22.4091 72.0133 22.9756 70.3309 22.9756C66.3075 22.9756 63.0411 19.736 63.0411 15.7459C63.0411 11.7557 66.3075 8.51619 70.3309 8.51619C72.0133 8.51619 73.4434 9.08261 74.538 10.0335V8.99812H77.3712V22.4936ZM41.4041 22.4936H38.571V8.99821H41.4041V9.74761C42.0333 9.16097 43.2174 8.51818 44.6865 8.51619C46.5731 8.51619 48.2626 9.36833 49.3852 10.7046C50.508 9.36833 52.1975 8.51619 54.0841 8.51619C57.4561 8.51619 60.1995 11.237 60.1995 14.5812V22.4936H57.3663V14.5812C57.3663 12.7863 55.8939 11.326 54.0841 11.326C52.2742 11.326 50.8019 12.7863 50.8019 14.5812V22.4936H47.9687V14.5812C47.9687 12.7863 46.4962 11.326 44.6865 11.326C42.8766 11.326 41.4041 12.7863 41.4041 14.5812V22.4936ZM80.7554 22.4934H83.5886V8.99805H80.7554V22.4934ZM86.9727 22.4936H89.8059V3.21442H86.9727V22.4936ZM70.3357 11.288C72.8165 11.288 74.7714 13.2855 74.7714 15.7458C74.7714 18.2061 72.8165 20.2035 70.3357 20.2035C67.855 20.2035 65.8409 18.2061 65.8409 15.7458C65.8409 13.2855 67.855 11.288 70.3357 11.288ZM82.1661 2.73218C83.2401 2.73218 84.112 3.59698 84.112 4.66206C84.112 5.72723 83.2401 6.59204 82.1661 6.59204C81.092 6.59204 80.2201 5.72723 80.2201 4.66206C80.2201 3.59698 81.092 2.73218 82.1661 2.73218Z" fill="white"/>
</svg>
