<?xml version="1.0" standalone="no"?>
<!DOCTYPE svg PUBLIC "-//W3C//DTD SVG 20010904//EN"
 "http://www.w3.org/TR/2001/REC-SVG-20010904/DTD/svg10.dtd">
<svg version="1.0" xmlns="http://www.w3.org/2000/svg"
 width="700.000000pt" height="700.000000pt" viewBox="0 0 700.000000 700.000000"
 preserveAspectRatio="xMidYMid meet">
<metadata>
Created by potrace 1.14, written by Peter Selinger 2001-2017
</metadata>
<g transform="translate(0.000000,700.000000) scale(0.100000,-0.100000)"
fill="#000000" stroke="none">
<path d="M1080 6994 c-315 -46 -525 -147 -726 -348 -174 -174 -287 -386 -335
-631 -21 -104 -21 -4926 0 -5030 48 -245 162 -458 335 -631 140 -139 296 -235
474 -293 183 -60 15 -56 2672 -56 2044 0 2456 2 2515 14 494 98 868 472 966
966 21 104 21 4926 0 5030 -96 485 -439 838 -938 962 -63 16 -246 17 -2503 19
-1339 1 -2446 0 -2460 -2z m1571 -1291 c99 -55 149 -151 149 -285 l0 -68 204
0 203 0 5 88 c8 135 52 213 150 268 47 26 62 29 138 29 97 0 143 -18 206 -82
54 -53 76 -112 82 -215 l5 -88 203 0 204 0 0 68 c0 140 51 234 159 289 49 26
75 33 119 33 189 0 302 -129 302 -346 l0 -71 68 -16 c236 -58 457 -272 521
-507 40 -144 42 -241 38 -1590 -4 -1401 -2 -1346 -57 -1493 -50 -132 -191
-296 -321 -372 -34 -20 -94 -47 -133 -60 -147 -49 -171 -50 -1396 -50 -1229 0
-1249 1 -1399 51 -187 63 -383 249 -451 431 -55 147 -53 92 -57 1493 -4 1355
-2 1446 38 1593 64 232 287 447 522 504 l67 16 0 71 c0 152 52 257 155 313 51
27 77 33 151 29 58 -2 83 -9 125 -33z"/>
<path d="M4219 4066 c-20 -7 -49 -22 -65 -34 -16 -11 -240 -232 -498 -491
l-470 -470 -168 162 c-198 190 -228 210 -313 211 -114 2 -210 -75 -235 -187
-11 -45 -10 -63 5 -113 16 -57 24 -66 288 -331 296 -296 318 -312 418 -313 43
0 69 7 107 27 69 38 1200 1160 1227 1218 26 55 25 148 -2 200 -56 108 -184
160 -294 121z"/>
</g>
</svg>
